<?xml version="1.0" encoding="utf-8"?>
<!-- Generator: Adobe Illustrator 23.0.6, SVG Export Plug-In . SVG Version: 6.00 Build 0)  -->
<svg version="1.1" id="Layer_1" xmlns="http://www.w3.org/2000/svg" xmlns:xlink="http://www.w3.org/1999/xlink" x="0px" y="0px"
	 viewBox="0 0 16 16" style="enable-background:new 0 0 16 16;" xml:space="preserve">
<style type="text/css">
	.st0{fill:#FF6400;}
</style>
<rect class="st0" width="16" height="16"/>
<g>
	<path d="M7.8,1.9C7.7,2.2,7.5,2.3,7.2,2.3c-0.9,0-1.9,0-2.8,0C4.2,2.3,4.2,2.4,4,2.4c0-0.2,0-0.3-0.1-0.5c-0.1,0-0.1,0-0.1,0
		c0,0.1,0,0.2,0,0.3s0,0.2-0.2,0.2c0,0-0.1,0-0.1,0.1c0,0.3-0.2,0.2-0.4,0.2c-0.3,0-0.6-0.1-1-0.1c-0.1,0-0.2,0.1-0.2,0.1
		C2,2.8,2,2.8,2,2.8c0.4,0,0.7,0,1.1,0c0.2,0,0.4-0.1,0.5,0.1C4,3.2,4.5,3,5,3.1c0.1,0,0.2,0.1,0.3,0.2c0.1,0.1,0.2,0.1,0.2,0.2
		c0.1,0.1,0.1,0.2,0.1,0.3S5.5,4.1,5.5,4.2C5.3,4.3,5.3,4.4,5.6,4.5c0.1,0,0.1,0.1,0.2,0.2C6.2,5,6.3,5.2,6.7,5.4
		c0.3,0.3,0.5,0.2,0.8,0C7.7,5.3,8,5.2,8.2,5.1C8.3,5,8.4,5,8.5,5c0.1,0.1,0.1,0.3-0.1,0.4c-0.1,0-0.2,0.3-0.2,0.4
		c0,0.4,0.1,0.7,0.1,1.1c0,0.2,0.1,0.3,0.2,0.4c0.1,0,0.2,0,0.3,0C8.9,7.3,9,7.4,9,7.5C9,7.7,8.9,7.9,8.8,8C8.3,8.5,8,9.2,7.7,9.9
		c-0.1,0.2-0.2,0.3-0.3,0.4c-0.1,0.2-0.1,0.4-0.1,0.6c0,0.4,0.1,0.9,0.1,1.3v0.1c-0.2,0.5,0.1,0.9,0.1,1.4c0,0.4-0.4,0.9-0.8,1.1
		c-0.1,0.1-0.3,0.1-0.3,0.2c-0.1,0.1-0.1,0.2-0.1,0.3s0.1,0.1,0.2,0.1c0.4,0,0.9-0.1,1.3-0.1c0.2,0,0.4-0.1,0.5,0
		c0.3,0,0.4-0.1,0.3-0.4c-0.1-0.2-0.2-0.4-0.2-0.5c0-0.3,0-0.7,0.1-1c0.1-0.5,0.3-1,0.2-1.5c0-0.2-0.1-0.4-0.2-0.5
		c0.1-0.5,0.2-0.5,0.4-0.6c0.1,0,0.3-0.1,0.4-0.2c0.2-0.3,0.4-0.6,0.6-0.8C10,9.7,10,9.6,10,9.6c0.3,0,0.4-0.2,0.5-0.4h0.1
		c0.2,0.4,0.4,0.8,0.6,1.2c0.1,0.1,0.1,0.3,0.1,0.4c0.1,0.1,0.1,0.3,0.2,0.4c0.2,0.3,0.4,0.5,0.5,0.8c0,0.1,0,0.1,0,0.2
		c0,0.2,0,0.3,0.1,0.5c0.1,0.3,0.3,0.6,0.4,1c0,0.1,0.1,0.1,0.1,0.1c0.4,0.4,0.6,1,0.4,1.5c-0.1,0.3-0.1,0.4,0.3,0.4
		c0.2,0,0.4,0,0.6,0c0.2,0,0.3-0.1,0.3-0.3c-0.1-0.3-0.1-0.5-0.2-0.7c0-0.1-0.1-0.3-0.1-0.4c-0.1-0.2-0.1-0.4-0.1-0.6
		c0.1-0.2-0.1-0.4-0.1-0.6c-0.1-0.2-0.1-0.4-0.2-0.6c-0.1-0.3-0.3-0.5-0.4-0.8c-0.1-0.1-0.1-0.1-0.1-0.2c-0.2-0.3-0.2-0.5-0.2-0.8
		s-0.1-0.7-0.1-1.1c0-0.1,0-0.3,0.1-0.4c0-0.2,0.1-0.4,0.1-0.7c0-0.1-0.1-0.2-0.1-0.2c0-0.4,0-0.5,0.1-0.6c0-0.3,0.1-0.5,0.1-0.8
		c0-0.2,0.1-0.5-0.3-0.5c-0.1-0.3-0.1-0.3-0.1-0.3c0.4,0,0.4,0,0.4-0.4c-0.1-0.3-0.1-0.6-0.1-0.8c0-0.3-0.1-0.3-0.3-0.3
		c-0.4-0.1-0.4-0.2-0.4-0.5c0.1-0.7,0-1.3-0.6-1.8c-0.3-0.2-0.6-0.4-1-0.2c-0.1,0-0.1,0-0.1,0c0-0.1-0.1-0.1,0-0.2
		c0.2-0.3,0.1-0.6,0-0.9c-0.3-0.6-1-0.8-1.6-0.5c-0.1,0-0.1,0.1-0.1,0.1c-0.6,0.1-0.5,0.6-0.5,1c0,0.2,0.1,0.3,0.3,0.3
		s0.1,0.2,0.1,0.3c0,0.2-0.2,0.1-0.3,0.1S8.1,2.2,8,2.2C7.8,2.2,7.8,2.1,7.8,1.9z M7.2,3.9c0,0,0,0-0.1,0C6.9,3.8,6.8,3.6,6.7,3.5
		V3.4c0.2,0,0.4,0.1,0.5,0.1C7.3,3.6,7.3,3.8,7.2,3.9z M7,3.4L7,3.4c-0.2,0-0.2-0.1-0.3-0.1c0,0,0.1-0.1,0.1-0.2C7,3.1,7,3.2,7,3.4z
		"/>
</g>
</svg>
