<?xml version="1.0" encoding="utf-8"?>
<!-- Generator: Adobe Illustrator 23.0.6, SVG Export Plug-In . SVG Version: 6.00 Build 0)  -->
<svg version="1.1" id="Layer_1" xmlns="http://www.w3.org/2000/svg" xmlns:xlink="http://www.w3.org/1999/xlink" x="0px" y="0px"
	 viewBox="0 0 16 16" style="enable-background:new 0 0 16 16;" xml:space="preserve">
<style type="text/css">
	.st0{fill:#FF6400;}
</style>
<rect class="st0" width="16" height="16"/>
<g>
	<path d="M8.2,1.9c0.1,0.3,0.2,0.4,0.6,0.4c0.9,0,1.9,0,2.8,0c0.1,0,0.2,0.1,0.4,0.1c0-0.2,0-0.3,0.1-0.5c0.1,0,0.1,0,0.1,0
		c0,0.1,0,0.2,0,0.3s0,0.2,0.2,0.2c0,0,0.1,0,0.1,0.1c0,0.3,0.2,0.2,0.4,0.2c0.3,0,0.6-0.1,1-0.1c0.1,0,0.2,0.1,0.2,0.1
		c-0.1,0.1-0.2,0.1-0.2,0.1c-0.4,0-0.7,0-1.1,0c-0.2,0-0.4-0.1-0.5,0.1C11.9,3.2,11.4,3,11,3.1c-0.1,0-0.2,0.1-0.3,0.2
		c-0.1,0.1-0.2,0.1-0.2,0.2c-0.1,0.1-0.1,0.2-0.1,0.3s0.1,0.3,0.1,0.4c0.1,0.1,0.1,0.2-0.1,0.3c-0.1,0-0.1,0.1-0.2,0.2
		C9.8,5,9.6,5.2,9.3,5.4C9,5.7,8.8,5.6,8.5,5.4C8.3,5.3,8,5.2,7.8,5.1C7.8,5,7.7,5,7.5,5C7.4,5.1,7.4,5.3,7.7,5.4
		c0.1,0,0.2,0.3,0.2,0.4c0,0.4-0.1,0.7-0.1,1.1c0,0.2-0.1,0.3-0.2,0.4c-0.1,0-0.2,0-0.3,0S7,7.4,7,7.5C7,7.7,7.1,7.9,7.2,8
		C7.8,8.5,8,9.2,8.3,9.9c0.1,0.2,0.2,0.3,0.3,0.4c0.1,0.2,0.1,0.4,0.1,0.6c0,0.4-0.1,0.9-0.1,1.3v0.1c0.2,0.5-0.1,0.9-0.1,1.4
		c0,0.4,0.4,0.9,0.8,1.1c0.1,0.1,0.3,0.1,0.3,0.2c0.1,0.1,0.1,0.2,0.1,0.3s-0.1,0.1-0.2,0.1c-0.4,0-0.9-0.1-1.3-0.1
		c-0.2,0-0.4-0.1-0.5,0c-0.3,0-0.4-0.1-0.3-0.4c0.1-0.2,0.2-0.4,0.2-0.5c0-0.3,0-0.7-0.1-1c-0.1-0.5-0.3-1-0.2-1.5
		c0-0.2,0.1-0.4,0.2-0.5c-0.1-0.5-0.2-0.5-0.4-0.6c-0.1,0-0.3-0.1-0.4-0.2C6.6,10.3,6.3,10,6.2,9.8C6,9.7,6,9.6,6,9.6
		c-0.3,0-0.4-0.2-0.5-0.4H5.4C5.3,9.6,5,10,4.8,10.4c-0.1,0.1-0.1,0.3-0.1,0.4c-0.1,0.1-0.1,0.3-0.2,0.4c-0.2,0.3-0.4,0.5-0.5,0.8
		c0,0.1,0,0.1,0,0.2c0,0.2,0,0.3-0.1,0.5c-0.1,0.3-0.3,0.6-0.4,1c0,0.1-0.1,0.1-0.1,0.1c-0.4,0.4-0.6,1-0.4,1.5
		c0.1,0.3,0.1,0.4-0.3,0.4c-0.2,0-0.4,0-0.6,0c-0.2,0-0.3-0.1-0.3-0.3c0.1-0.3,0.1-0.5,0.2-0.7c0-0.1,0.1-0.3,0.1-0.4
		c0.1-0.2,0.1-0.4,0.1-0.6c-0.1-0.2,0.1-0.4,0.1-0.6c0.1-0.2,0.1-0.4,0.2-0.6c0.1-0.3,0.3-0.5,0.4-0.8C3,11.6,3,11.6,3,11.5
		c0.2-0.3,0.2-0.5,0.2-0.8S3.3,10,3.3,9.6c0-0.1,0-0.3-0.1-0.4c0-0.2-0.1-0.4-0.1-0.7c0-0.1,0.1-0.2,0.1-0.2c0-0.4,0-0.5-0.1-0.6
		c0-0.3-0.1-0.5-0.1-0.8c0-0.2-0.1-0.5,0.3-0.5c0.1-0.3,0.1-0.3,0.1-0.3C3,6.1,3,6.1,3,5.7c0.1-0.3,0.1-0.6,0.1-0.8
		c0-0.3,0.1-0.3,0.3-0.3c0.4-0.1,0.4-0.2,0.4-0.5c-0.1-0.7,0-1.3,0.6-1.8c0.3-0.2,0.6-0.4,1-0.2c0.1,0,0.1,0,0.1,0
		c0-0.1,0.1-0.1,0-0.2C5.3,1.6,5.4,1.3,5.5,1c0.3-0.6,1-0.8,1.6-0.5c0.1,0,0.1,0.1,0.1,0.1c0.6,0.1,0.5,0.6,0.5,1
		c0,0.2-0.1,0.3-0.3,0.3c-0.2,0-0.1,0.2-0.1,0.3c0,0.2,0.2,0.1,0.3,0.1S8,2.2,8,2.2C8.1,2.2,8.1,2.1,8.2,1.9z M8.8,3.9
		c0,0,0,0,0.1,0c0.1-0.1,0.2-0.3,0.3-0.4V3.4C9,3.4,8.8,3.5,8.7,3.5C8.7,3.6,8.7,3.8,8.8,3.9z M8.9,3.4L8.9,3.4
		c0.2,0,0.2-0.1,0.3-0.1c0,0-0.1-0.1-0.1-0.2C8.9,3.1,8.9,3.2,8.9,3.4z"/>
</g>
</svg>
