<?xml version="1.0" encoding="utf-8"?>
<!-- Generator: Adobe Illustrator 23.0.6, SVG Export Plug-In . SVG Version: 6.00 Build 0)  -->
<svg version="1.1" id="Layer_1" xmlns="http://www.w3.org/2000/svg" xmlns:xlink="http://www.w3.org/1999/xlink" x="0px" y="0px"
	 viewBox="0 0 110 30" style="enable-background:new 0 0 110 30;" xml:space="preserve">
<style type="text/css">
	.st0{display:none;}
	.st1{display:inline;}
	.st2{fill:#FF6400;}
	.st3{display:inline;fill:#FF6400;}
</style>
<g>
	<path d="M13.4,4c0.2,0.5,0.4,0.6,1,0.6c1.7,0,3.5,0,5.2,0c0.2,0,0.4,0.1,0.7,0.2c0-0.3,0-0.6,0.1-0.9c0.1,0,0.1,0,0.2,0
		c0,0.2,0,0.4,0,0.6s0,0.4,0.3,0.4c0,0,0.1,0,0.1,0.1c0,0.5,0.4,0.4,0.7,0.4c0.6,0,1.2-0.1,1.8-0.1c0.1,0,0.3,0.1,0.4,0.2
		c-0.1,0.1-0.3,0.2-0.4,0.2c-0.7,0-1.4,0-2,0c-0.4,0-0.8-0.1-1,0.1c-0.8,0.5-1.7,0.1-2.5,0.3c-0.2,0-0.4,0.2-0.6,0.3
		c-0.1,0.1-0.3,0.2-0.4,0.4c-0.1,0.2-0.2,0.4-0.2,0.6s0.1,0.5,0.1,0.7C17,8.3,17,8.5,16.7,8.6c-0.1,0-0.2,0.2-0.3,0.4
		c-0.1,0.7-0.5,1.2-1,1.6c-0.5,0.4-1,0.2-1.4,0c-0.5-0.2-1-0.4-1.5-0.7c-0.1-0.1-0.2-0.1-0.4-0.2c-0.2,0.3-0.3,0.6,0.1,0.8
		c0.2,0.1,0.3,0.5,0.3,0.7c0,0.7-0.1,1.3-0.1,2c0,0.3-0.2,0.5-0.4,0.8c-0.1,0.1-0.3,0.1-0.5,0.1c-0.3-0.1-0.4,0.1-0.4,0.3
		c0,0.3,0.1,0.7,0.3,0.9c1,1,1.6,2.3,2.1,3.6c0.1,0.3,0.4,0.5,0.5,0.7c0.1,0.3,0.2,0.7,0.2,1.1c0,0.8-0.2,1.7-0.2,2.5v0.1
		c0.3,0.9-0.2,1.7-0.2,2.6c0,0.8,0.7,1.7,1.5,2c0.2,0.1,0.5,0.1,0.6,0.3c0.1,0.1,0.2,0.3,0.2,0.5c0,0.1-0.2,0.2-0.3,0.2
		c-0.8,0-1.7-0.1-2.5-0.1c-0.3,0-0.7-0.1-1,0c-0.6,0-0.7-0.1-0.6-0.7c0.1-0.3,0.3-0.7,0.3-1c0-0.6,0-1.3-0.1-1.8
		c-0.2-1-0.5-1.9-0.4-2.9c0-0.3,0.2-0.7,0.3-1c0.1-0.5-0.1-0.6-0.6-0.7c-0.2,0-0.5-0.2-0.7-0.4c-0.4-0.5-0.8-1.1-1.2-1.6
		c-0.1-0.1-0.1-0.2-0.2-0.2c-0.5,0-0.8-0.3-1-0.7H8c-0.4,0.7-0.7,1.4-1.1,2.1c-0.1,0.2-0.1,0.5-0.2,0.7s-0.2,0.5-0.4,0.7
		c-0.3,0.5-0.7,1-1,1.5c0,0.1,0,0.2,0,0.3c0,0.3,0,0.6-0.1,0.9c-0.2,0.6-0.5,1.2-0.8,1.8c0,0.1-0.1,0.2-0.2,0.2
		c-0.8,0.7-1.1,1.8-0.7,2.8c0.2,0.5,0.1,0.7-0.5,0.7c-0.4,0-0.8,0-1.2,0s-0.6-0.2-0.5-0.6c0.1-0.5,0.2-1,0.3-1.4
		c0-0.2,0.1-0.5,0.2-0.7c0.1-0.4,0.2-0.7,0.1-1.2c-0.1-0.3,0.1-0.7,0.2-1.1s0.2-0.8,0.4-1.1c0.2-0.5,0.5-1,0.8-1.5
		c0.1-0.1,0.1-0.2,0.2-0.3c0.3-0.5,0.4-1,0.4-1.5c0-0.6,0.2-1.3,0.2-2c0-0.2,0-0.5-0.1-0.7c0-0.4-0.1-0.8-0.1-1.3
		c0-0.1,0.1-0.4,0.2-0.4c0-0.7,0-0.9-0.1-1.2c0-0.5-0.1-1-0.1-1.5c0-0.4-0.1-0.9,0.5-1c-0.1-0.1-0.2-0.1-0.2-0.1
		c-0.7-0.1-0.7-0.1-0.6-0.9c0.1-0.5,0.1-1.1,0.2-1.6c0-0.5,0.1-0.5,0.6-0.5C5,8.8,5,8.7,5,8.1C4.9,6.8,5.1,5.6,6.1,4.6
		c0.5-0.4,1.1-0.7,1.8-0.4c0.1,0,0.2,0,0.2,0c0-0.1,0.1-0.2,0-0.3C7.9,3.3,8,2.8,8.3,2.2c0.5-1.1,1.9-1.6,3-1c0.1,0,0.2,0.1,0.2,0.1
		c1,0.4,0.9,1.2,0.9,2c0,0.3-0.2,0.5-0.5,0.5c-0.4,0.1-0.3,0.4-0.2,0.6c0,0.3,0.3,0.2,0.5,0.2s0.5-0.1,0.7-0.2
		C13.1,4.4,13.2,4.2,13.4,4z M14.4,7.6c0.1,0,0.1,0,0.2,0c0.2-0.2,0.3-0.5,0.5-0.7V6.8c-0.3,0-0.6,0.1-0.9,0.1
		C14.2,7.1,14.3,7.4,14.4,7.6z M14.7,6.7l0.1,0.1c0.2-0.1,0.3-0.2,0.5-0.3c0,0-0.1-0.2-0.2-0.3C14.7,6.2,14.7,6.4,14.7,6.7z"/>
</g>
<g class="st0">
	<g class="st1">
		<path d="M30.2-19.9h-7.4c-1.2,0-2.1-0.9-2.1-2.1v-5.8c0-1.2,0.9-2.1,2.1-2.1h7.4c1.2,0,2.1,0.9,2.1,2.1l0,0H24
			c-0.2,0-0.4,0.2-0.4,0.4v4.9c0,0.2,0.2,0.4,0.4,0.4h8.3l0,0C32.3-20.9,31.4-19.9,30.2-19.9z M22.8-29.8c-1.1,0-2,0.9-2,2v5.8
			c0,1.1,0.9,2,2,2h7.4c1.1,0,2-0.9,2-2H24c-0.2,0-0.5-0.2-0.5-0.5v-4.9c0-0.2,0.2-0.5,0.5-0.5h8.2c0-1.1-0.9-2-2-2h-7.4V-29.8z"/>
	</g>
	<g class="st1">
		<path d="M43.7-19.9h-7.4c-1.2,0-2.1-0.9-2.1-2.1l0,0h8.5c0.2,0,0.4-0.2,0.4-0.4v-1.1c0-0.2-0.2-0.4-0.4-0.4h-6.4
			c-1.2,0-2.1-0.9-2.1-2.1v-1.8c0-1.2,0.9-2.1,2.1-2.1h7.4c1.2,0,2.1,0.9,2.1,2.1l0,0h-8.5c-0.2,0-0.4,0.2-0.4,0.4v1.4h6.7
			c1.2,0,2.1,0.9,2.1,2.1v1.9C45.8-20.9,44.9-19.9,43.7-19.9z M34.3-22c0,1.1,0.9,2,2,2h7.4c1.1,0,2-0.9,2-2v-1.9c0-1.1-0.9-2-2-2
			h-6.8v-1.5c0-0.2,0.2-0.5,0.5-0.5h8.4c0-1.1-0.9-2-2-2h-7.4c-1.1,0-2,0.9-2,2v1.8c0,1.1,0.9,2,2,2h6.4c0.2,0,0.5,0.2,0.5,0.5v1.1
			c0,0.2-0.2,0.5-0.5,0.5H34.3z"/>
	</g>
	<g class="st1">
		<path d="M30.2-7.5h-7.4c-1.2,0-2.1-0.9-2.1-2.1v-5.8c0-1.2,0.9-2.1,2.1-2.1h7.4c1.2,0,2.1,0.9,2.1,2.1l0,0h-8.5
			c-0.1,0-0.1,0-0.2,0c-0.1,0.1-0.2,0.2-0.2,0.3v4.9c0,0.2,0.2,0.4,0.4,0.4h5.3c0.2,0,0.4-0.2,0.4-0.4v-1.1c0-0.2-0.2-0.4-0.4-0.4
			h-2.7c-0.8,0-1.5-0.7-1.5-1.5l0,0h7.3v3.4C32.3-8.5,31.4-7.5,30.2-7.5z M22.8-17.4c-1.1,0-2,0.9-2,2v5.8c0,1.1,0.9,2,2,2h7.4
			c1.1,0,2-0.9,2-2v-3.3h-7.1c0,0.7,0.6,1.3,1.4,1.3h2.7c0.2,0,0.5,0.2,0.5,0.5v1.1c0,0.2-0.2,0.5-0.5,0.5h-5.3
			c-0.2,0-0.5-0.2-0.5-0.5v-5c0-0.2,0.1-0.3,0.2-0.4c0.1,0,0.1-0.1,0.2-0.1h8.4c0-1.1-0.9-2-2-2h-7.4V-17.4z"/>
	</g>
	<g class="st1">
		<path d="M43.7-7.5h-7.4c-1.2,0-2.1-0.9-2.1-2.1v-5.8c0-1.2,0.9-2.1,2.1-2.1h7.4c1.2,0,2.1,0.9,2.1,2.1v5.8
			C45.8-8.5,44.9-7.5,43.7-7.5z M36.3-17.4c-1.1,0-2,0.9-2,2v5.8c0,1.1,0.9,2,2,2h7.4c1.1,0,2-0.9,2-2v-5.8c0-1.1-0.9-2-2-2H36.3z
			 M42.7-9.6h-5.3c-0.2,0-0.5-0.2-0.5-0.5V-15c0-0.2,0.2-0.5,0.5-0.5h5.3c0.2,0,0.5,0.2,0.5,0.5v4.9C43.1-9.8,42.9-9.6,42.7-9.6z
			 M37.3-15.3c-0.2,0-0.4,0.2-0.4,0.4v4.9c0,0.2,0.2,0.4,0.4,0.4h5.3c0.2,0,0.4-0.2,0.4-0.4v-5c0-0.2-0.2-0.4-0.4-0.4L37.3-15.3
			L37.3-15.3z"/>
	</g>
</g>
<g class="st0">
	<g class="st1">
		<path d="M34.3,13.8h-7.4c-1.2,0-2.1-0.9-2.1-2.1V5.9c0-1.2,0.9-2.1,2.1-2.1h7.4c1.2,0,2.1,0.9,2.1,2.1l0,0h-8.3
			c-0.2,0-0.4,0.2-0.4,0.4v4.9c0,0.2,0.2,0.4,0.4,0.4h8.3l0,0C36.4,12.8,35.4,13.8,34.3,13.8z M26.9,3.9c-1.1,0-2,0.9-2,2v5.8
			c0,1.1,0.9,2,2,2h7.4c1.1,0,2-0.9,2-2h-8.2c-0.2,0-0.5-0.2-0.5-0.5V6.3c0-0.2,0.2-0.5,0.5-0.5h8.2c0-1.1-0.9-2-2-2L26.9,3.9
			L26.9,3.9z"/>
	</g>
	<g class="st1">
		<path d="M47.8,13.8h-7.4c-1.2,0-2.1-0.9-2.1-2.1l0,0h8.5c0.2,0,0.4-0.2,0.4-0.4v-1.1c0-0.2-0.2-0.4-0.4-0.4h-6.4
			c-1.2,0-2.1-0.9-2.1-2.1V5.9c0-1.2,0.9-2.1,2.1-2.1h7.4c1.2,0,2.1,0.9,2.1,2.1l0,0h-8.5C41.2,6,41,6.1,41,6.3v1.4h6.7
			c1.2,0,2.1,0.9,2.1,2.1v1.9C49.9,12.8,48.9,13.8,47.8,13.8z M38.4,11.7c0,1.1,0.9,2,2,2h7.4c1.1,0,2-0.9,2-2V9.8c0-1.1-0.9-2-2-2
			H41V6.3c0-0.2,0.2-0.5,0.5-0.5h8.4c0-1.1-0.9-2-2-2h-7.4c-1.1,0-2,0.9-2,2v1.8c0,1.1,0.9,2,2,2h6.4c0.2,0,0.5,0.2,0.5,0.5v1.1
			c0,0.2-0.2,0.5-0.5,0.5C46.9,11.7,38.4,11.7,38.4,11.7z"/>
	</g>
	<g class="st1">
		<path d="M34.3,26.8h-7.4c-1.2,0-2.1-0.9-2.1-2.1l0,0h8.5c0.2,0,0.4-0.2,0.4-0.4v-1.1c0-0.2-0.2-0.4-0.4-0.4h-6.4
			c-1.2,0-2.1-0.9-2.1-2.1V19c0-1.2,0.9-2.1,2.1-2.1h7.4c1.2,0,2.1,0.9,2.1,2.1l0,0h-8.5c-0.2,0-0.4,0.2-0.4,0.4v1.4h6.7
			c1.2,0,2.1,0.9,2.1,2.1v1.9C36.4,25.9,35.4,26.8,34.3,26.8z M24.9,24.8c0,1.1,0.9,2,2,2h7.4c1.1,0,2-0.9,2-2v-1.9c0-1.1-0.9-2-2-2
			h-6.8v-1.5c0-0.2,0.2-0.5,0.5-0.5h8.4c0-1.1-0.9-2-2-2H27c-1.1,0-2,0.9-2,2v1.8c0,1.1,0.9,2,2,2h6.4c0.2,0,0.5,0.2,0.5,0.5v1.1
			c0,0.2-0.2,0.5-0.5,0.5H24.9z"/>
	</g>
	<g class="st1">
		<path d="M90.3,26.8h-7.4c-1.2,0-2.1-0.9-2.1-2.1l0,0h8.5c0.2,0,0.4-0.2,0.4-0.4v-1.1c0-0.2-0.2-0.4-0.4-0.4h-6.4
			c-1.2,0-2.1-0.9-2.1-2.1V19c0-1.2,0.9-2.1,2.1-2.1h7.4c1.2,0,2.1,0.9,2.1,2.1l0,0h-8.5c-0.2,0-0.4,0.2-0.4,0.4v1.4h6.7
			c1.2,0,2.1,0.9,2.1,2.1v1.9C92.4,25.9,91.4,26.8,90.3,26.8z M80.8,24.8c0,1.1,0.9,2,2,2h7.4c1.1,0,2-0.9,2-2v-1.9c0-1.1-0.9-2-2-2
			h-6.8v-1.5c0-0.2,0.2-0.5,0.5-0.5h8.4c0-1.1-0.9-2-2-2h-7.4c-1.1,0-2,0.9-2,2v1.8c0,1.1,0.9,2,2,2h6.4c0.2,0,0.5,0.2,0.5,0.5v1.1
			c0,0.2-0.2,0.5-0.5,0.5H80.8z"/>
	</g>
	<g class="st1">
		<path d="M76.8,13.8h-7.4c-1.2,0-2.1-0.9-2.1-2.1V5.9c0-1.2,0.9-2.1,2.1-2.1h7.4c1.2,0,2.1,0.9,2.1,2.1l0,0h-8.5
			c-0.1,0-0.1,0-0.2,0C70.1,6.1,70,6.2,70,6.3v4.9c0,0.2,0.2,0.4,0.4,0.4h5.3c0.2,0,0.4-0.2,0.4-0.4v-1.1c0-0.2-0.2-0.4-0.4-0.4H73
			c-0.8,0-1.5-0.7-1.5-1.5l0,0h7.3v3.4C78.9,12.8,77.9,13.8,76.8,13.8z M69.4,3.9c-1.1,0-2,0.9-2,2v5.8c0,1.1,0.9,2,2,2h7.4
			c1.1,0,2-0.9,2-2V8.4h-7.1c0,0.7,0.6,1.3,1.4,1.3h2.7c0.2,0,0.5,0.2,0.5,0.5v1.1c0,0.2-0.2,0.5-0.5,0.5h-5.3
			c-0.2,0-0.5-0.2-0.5-0.5v-5c0-0.2,0.1-0.3,0.2-0.4c0.1,0,0.1-0.1,0.2-0.1h8.4c0-1.1-0.9-2-2-2L69.4,3.9L69.4,3.9z"/>
	</g>
	<g class="st1">
		<path d="M90.3,13.8h-7.4c-1.2,0-2.1-0.9-2.1-2.1V5.9c0-1.2,0.9-2.1,2.1-2.1h7.4c1.2,0,2.1,0.9,2.1,2.1v5.8
			C92.4,12.8,91.4,13.8,90.3,13.8z M82.9,3.9c-1.1,0-2,0.9-2,2v5.8c0,1.1,0.9,2,2,2h7.4c1.1,0,2-0.9,2-2V5.9c0-1.1-0.9-2-2-2H82.9z
			 M89.2,11.7h-5.3c-0.2,0-0.5-0.2-0.5-0.5V6.3c0-0.2,0.2-0.5,0.5-0.5h5.3c0.2,0,0.5,0.2,0.5,0.5v4.9C89.7,11.5,89.5,11.7,89.2,11.7
			z M83.9,6c-0.2,0-0.4,0.2-0.4,0.4v4.9c0,0.2,0.2,0.4,0.4,0.4h5.3c0.2,0,0.4-0.2,0.4-0.4v-5c0-0.2-0.2-0.4-0.4-0.4L83.9,6L83.9,6z"
			/>
	</g>
	<g class="st1">
		<path d="M45.1,26.9h-0.2c-1,0-1.8-0.8-1.8-1.8v-6h-4.8l0,0c0-1.2,0.9-2.1,2.1-2.1h7.4c1.2,0,2.1,0.9,2.1,2.1v0.1h-4.8V26.9z
			 M45,26.8L45,26.8V19h4.8c0-1.1-0.9-2-2-2h-7.4c-1.1,0-2,0.9-2,2h4.8v6C43.2,26,44,26.8,45,26.8z"/>
	</g>
	<g class="st1">
		<path d="M74.1,26.9h-0.2c-1,0-1.8-0.8-1.8-1.8v-6h-4.8l0,0c0-1.2,0.9-2.1,2.1-2.1h7.4c1.2,0,2.1,0.9,2.1,2.1v0.1h-4.8
			C74.1,19.2,74.1,26.9,74.1,26.9z M74,26.8L74,26.8V19h4.8c0-1.1-0.9-2-2-2h-7.4c-1.1,0-2,0.9-2,2h4.8v6C72.2,26,73,26.8,74,26.8z"
			/>
	</g>
	<g class="st1">
		<path d="M59.3,7.3h-1.5c-0.3,0-0.5-0.2-0.5-0.5V5.4c0-0.3,0.2-0.5,0.5-0.5h1.5c0.3,0,0.5,0.2,0.5,0.5v1.3
			C59.9,7,59.6,7.3,59.3,7.3z M57.8,5c-0.2,0-0.5,0.2-0.5,0.5v1.3c0,0.2,0.2,0.5,0.5,0.5h1.5c0.2,0,0.5-0.2,0.5-0.5V5.4
			c0-0.2-0.2-0.5-0.5-0.5L57.8,5L57.8,5z"/>
	</g>
	<g class="st1">
		<path d="M59.3,12.7h-1.5c-0.3,0-0.5-0.2-0.5-0.5v-1.3c0-0.3,0.2-0.5,0.5-0.5h1.5c0.3,0,0.5,0.2,0.5,0.5v1.3
			C59.9,12.5,59.6,12.7,59.3,12.7z M57.8,10.4c-0.2,0-0.5,0.2-0.5,0.5v1.3c0,0.2,0.2,0.5,0.5,0.5h1.5c0.2,0,0.5-0.2,0.5-0.5v-1.3
			c0-0.2-0.2-0.5-0.5-0.5H57.8z"/>
	</g>
	<g class="st1">
		<path d="M62.3,26.7h-0.7v-3.4c0-0.2-0.2-0.5-0.5-0.5H56c-0.3,0-0.5,0.2-0.5,0.5v3.4h-0.7c-1.1,0-2-0.9-2-2V19c0-1.1,0.9-2,2-2h7.5
			c1.1,0,2,0.9,2,2v5.7C64.4,25.8,63.5,26.7,62.3,26.7z M61.7,26.6h0.6c1.1,0,2-0.9,2-2V19c0-1.1-0.9-2-2-2h-7.5c-1.1,0-2,0.9-2,2
			v5.7c0,1.1,0.9,2,2,2h0.6v-3.3c0-0.3,0.2-0.5,0.5-0.5H61c0.3,0,0.5,0.2,0.5,0.5v3.2H61.7z M61.2,20.9H56c-0.3,0-0.5-0.2-0.5-0.5
			v-0.9c0-0.3,0.2-0.5,0.5-0.5h5.1c0.3,0,0.5,0.2,0.5,0.5v0.9C61.7,20.7,61.5,20.9,61.2,20.9z M56,19.1c-0.3,0-0.5,0.2-0.5,0.5v0.9
			c0,0.2,0.2,0.5,0.5,0.5h5.1c0.2,0,0.5-0.2,0.5-0.5v-0.9c0-0.2-0.2-0.5-0.5-0.5H56z"/>
	</g>
</g>
<g class="st0">
	<path class="st1" d="M92.4,22.9v1.8c0,1.2-0.9,2.1-2.1,2.1h-7.4c-1.2,0-2.1-0.9-2.1-2.1l0,0h8.5c0.2,0,0.4-0.2,0.4-0.4v-1.1
		c0-0.2-0.2-0.4-0.4-0.4h-6.4c-1.2,0-2.1-1-2.1-2.1V19c0-1.2,0.9-2.1,2.1-2.1h7.4c1.2,0,2.1,0.9,2.1,2.1l0,0h-8.5
		c-0.2,0-0.4,0.2-0.4,0.4v1.4h6.7C91.4,20.8,92.4,21.7,92.4,22.9z M92.3,24.7v-1.8c0-1.1-0.9-2-2-2h-6.8v-1.5c0-0.3,0.2-0.4,0.4-0.4
		h8.4c0-1.1-0.9-2-2-2h-7.4c-1.1,0-2,0.9-2,2v1.8c0,1.1,0.9,2,2,2h6.4c0.3,0,0.5,0.2,0.5,0.5v1.1c0,0.3-0.2,0.5-0.5,0.5h-8.4
		c0,1.1,0.9,2,2,2h7.4C91.4,26.7,92.3,25.8,92.3,24.7z"/>
	<path class="st1" d="M92.3,5.9v5.8c0,1.1-0.9,2.1-2.1,2.1h-7.4c-1.2,0-2.1-0.9-2.1-2.1V5.9c0-1.2,0.9-2.1,2.1-2.1h7.4
		C91.4,3.8,92.3,4.8,92.3,5.9z M92.3,11.7V5.9c0-1.1-0.9-2-2-2h-7.4c-1.1,0-2,0.9-2,2v5.8c0,1.1,0.9,2,2,2h7.4
		C91.4,13.7,92.3,12.8,92.3,11.7z"/>
	<path class="st1" d="M89.7,6.3v4.9c0,0.3-0.2,0.5-0.4,0.5h-5.4c-0.3,0-0.4-0.2-0.4-0.5V6.3c0-0.3,0.2-0.4,0.4-0.4h5.4
		C89.5,5.9,89.7,6.1,89.7,6.3z M89.6,11.3v-5c0-0.2-0.2-0.4-0.4-0.4h-5.4c-0.2,0-0.4,0.2-0.4,0.4v4.9c0,0.2,0.2,0.4,0.4,0.4h5.4
		C89.4,11.6,89.6,11.5,89.6,11.3z"/>
	<path class="st1" d="M78.9,19L78.9,19l-4.8,0.1v7.8h-0.2c-1,0-1.8-0.8-1.8-1.8v-6h-4.8l0,0c0-1.2,0.9-2.1,2.1-2.1h7.4
		C77.9,16.9,78.9,17.8,78.9,19z M74,19h4.8c0-1.1-0.9-2-2-2h-7.4c-1.1,0-2,0.9-2,2h4.8v6c0,1,0.8,1.8,1.8,1.8C74,26.8,74,19,74,19z"
		/>
	<path class="st1" d="M78.9,8.3v3.4c0,1.1-0.9,2.1-2.1,2.1h-7.4c-1.2,0-2.1-0.9-2.1-2.1V5.9c0-1.2,0.9-2.1,2.1-2.1h7.4
		c1.2,0,2.1,0.9,2.1,2.1l0,0h-8.5c-0.1,0-0.1,0-0.2,0.1C70.1,6.1,70,6.2,70,6.3v4.9c0,0.2,0.2,0.4,0.4,0.4h5.3
		c0.2,0,0.4-0.2,0.4-0.4v-1.1c0-0.2-0.2-0.4-0.4-0.4H73c-0.8,0-1.5-0.7-1.5-1.5l0,0L78.9,8.3L78.9,8.3z M78.8,11.7V8.4h-7.1
		c0,0.7,0.6,1.4,1.4,1.4h2.7c0.3,0,0.4,0.2,0.4,0.4v1.1c0,0.2-0.2,0.4-0.4,0.4h-5.3c-0.3,0-0.5-0.2-0.5-0.4v-5
		c0-0.2,0.1-0.3,0.2-0.4c0.1,0,0.1-0.1,0.2-0.1h8.4c0-1.1-0.9-2-2-2h-7.4c-1.1,0-2,0.9-2,2v5.8c0,1.1,0.9,2,2,2h7.4
		C77.9,13.7,78.8,12.8,78.8,11.7z"/>
	<path class="st1" d="M64.4,19v5.7c0,1.1-0.9,2-2.1,2h-0.8v-3.4c0-0.3-0.2-0.5-0.4-0.5H56c-0.3,0-0.5,0.2-0.5,0.5v3.4h-0.7
		c-1.1,0-2.1-0.9-2.1-2V19c0-1.1,0.9-2,2.1-2h7.5C63.5,17,64.4,17.9,64.4,19z M64.3,24.7V19c0-1.1-0.9-2-2-2h-7.5c-1.1,0-2,0.9-2,2
		v5.7c0,1.1,0.9,1.9,2,1.9h0.6v-3.3c0-0.3,0.2-0.6,0.5-0.6H61c0.3,0,0.5,0.3,0.5,0.6v3.3h0.6C63.4,26.6,64.3,25.8,64.3,24.7z"/>
	<path class="st1" d="M61.7,19.5v0.9c0,0.3-0.3,0.5-0.5,0.5H56c-0.3,0-0.5-0.3-0.5-0.5v-0.9c0-0.3,0.2-0.6,0.5-0.6h5.1
		C61.5,19,61.7,19.2,61.7,19.5z M61.6,20.4v-0.9c0-0.3-0.2-0.5-0.5-0.5H56c-0.3,0-0.4,0.2-0.4,0.5v0.9c0,0.3,0.2,0.4,0.4,0.4h5.1
		C61.4,20.8,61.6,20.6,61.6,20.4z"/>
	<path class="st1" d="M59.9,5.4v1.3c0,0.3-0.3,0.6-0.5,0.6h-1.5c-0.3,0-0.5-0.3-0.5-0.6V5.4c0-0.3,0.3-0.6,0.5-0.6h1.5
		C59.6,4.8,59.9,5.1,59.9,5.4z M59.8,6.7V5.4c0-0.2-0.2-0.5-0.5-0.5h-1.5c-0.3,0-0.5,0.2-0.5,0.5v1.3c0,0.3,0.2,0.5,0.5,0.5h1.5
		C59.6,7.2,59.8,7,59.8,6.7z"/>
	<path class="st1" d="M59.9,10.9v1.3c0,0.3-0.3,0.6-0.5,0.6h-1.5c-0.3,0-0.5-0.2-0.5-0.6v-1.3c0-0.3,0.2-0.6,0.5-0.6h1.5
		C59.6,10.3,59.9,10.6,59.9,10.9z M59.8,12.2v-1.3c0-0.3-0.2-0.4-0.5-0.4h-1.5c-0.3,0-0.5,0.2-0.5,0.4v1.3c0,0.3,0.2,0.5,0.5,0.5
		h1.5C59.6,12.6,59.8,12.4,59.8,12.2z"/>
	<path class="st1" d="M49.9,9.8v1.9c0,1.1-0.9,2.1-2.1,2.1h-7.4c-1.1,0-2.1-0.9-2.1-2.1l0,0h8.5c0.2,0,0.4-0.2,0.4-0.4v-1.1
		c0-0.2-0.2-0.4-0.4-0.4h-6.4c-1.1,0-2.1-0.9-2.1-2.1V5.9c0-1.2,0.9-2.1,2.1-2.1h7.4c1.2,0,2.1,0.9,2.1,2.1l0,0h-8.5
		C41.2,6,41,6.1,41,6.3v1.4h6.8C48.9,7.7,49.9,8.7,49.9,9.8z M49.8,11.7V9.8c0-1.1-0.9-2-2-2H41V6.3c0-0.3,0.2-0.4,0.5-0.4h8.4
		c0-1.1-0.9-2-2-2h-7.4c-1.1,0-2,0.9-2,2v1.8c0,1.1,0.9,2,2,2h6.4c0.3,0,0.5,0.2,0.5,0.4v1.1c0,0.3-0.2,0.5-0.5,0.5h-8.4
		c0,1.1,0.9,2,2,2h7.4C48.9,13.7,49.8,12.8,49.8,11.7z"/>
	<path class="st1" d="M49.8,19L49.8,19L45,19.1v7.8h-0.2c-1,0-1.8-0.8-1.8-1.8v-6h-4.8l0,0c0-1.2,0.9-2.1,2.1-2.1h7.4
		C48.9,16.9,49.8,17.8,49.8,19z M45,19h4.8c0-1.1-0.9-2-2-2h-7.4c-1.1,0-2,0.9-2,2h4.8v6c0,1,0.8,1.8,1.8,1.8C45,26.8,45,19,45,19z"
		/>
	<path class="st1" d="M36.4,22.9v1.8c0,1.2-0.9,2.1-2.1,2.1h-7.4c-1.2,0-2.1-0.9-2.1-2.1l0,0h8.5c0.2,0,0.4-0.2,0.4-0.4v-1.1
		c0-0.2-0.2-0.4-0.4-0.4h-6.4c-1.2,0-2.1-1-2.1-2.1V19c0-1.2,0.9-2.1,2.1-2.1h7.4c1.2,0,2.1,0.9,2.1,2.1l0,0h-8.5
		c-0.2,0-0.4,0.2-0.4,0.4v1.4h6.7C35.4,20.8,36.4,21.7,36.4,22.9z M36.3,24.7v-1.8c0-1.1-0.9-2-2-2h-6.8v-1.5c0-0.3,0.2-0.4,0.5-0.4
		h8.4c0-1.1-0.9-2-2-2H27c-1.1,0-2,0.9-2,2v1.8c0,1.1,0.9,2,2,2h6.4c0.3,0,0.5,0.2,0.5,0.5v1.1c0,0.3-0.2,0.5-0.5,0.5H25
		c0,1.1,0.9,2,2,2h7.4C35.4,26.7,36.3,25.8,36.3,24.7z"/>
	<path class="st1" d="M36.4,11.6L36.4,11.6c0,1.2-0.9,2.1-2.1,2.1h-7.4c-1.2,0-2.1-0.9-2.1-2.1V5.9c0-1.2,0.9-2.1,2.1-2.1h7.4
		c1.2,0,2.1,0.9,2.1,2.1l0,0h-8.3c-0.2,0-0.4,0.2-0.4,0.4v4.9c0,0.2,0.2,0.4,0.4,0.4H36.4z M28.1,5.9h8.2c0-1.1-0.9-2-2-2h-7.4
		c-1.1,0-2,0.9-2,2v5.8c0,1.1,0.9,2,2,2h7.4c1.1,0,2-0.9,2-2h-8.2c-0.3,0-0.5-0.2-0.5-0.5V6.3C27.7,6.1,27.9,5.9,28.1,5.9z"/>
</g>
<g>
	<path class="st2" d="M39.2,24.6v2.2c0,1.4-1.1,2.5-2.5,2.5h-9.2c-1.4,0-2.5-1.1-2.5-2.5h10.5c0.4,0,0.6-0.2,0.6-0.6v-1.4
		c0-0.4-0.2-0.6-0.6-0.6h-8c-1.4,0-2.5-1.1-2.5-2.5v-2c0-1.4,1.1-2.5,2.5-2.5h9.2c1.4,0,2.5,1.1,2.5,2.5H28.7
		c-0.4,0-0.6,0.2-0.6,0.5v1.9h8.5C38,22.1,39.2,23.3,39.2,24.6z"/>
	<path class="st2" d="M55.9,19.8H50v9.7c-1.2,0-2.2-1-2.2-2.2v-7.5h-6c0-1.4,1.1-2.5,2.5-2.5h9.2C54.8,17.3,55.9,18.4,55.9,19.8z"/>
	<path class="st2" d="M74.1,19.8v7.1c0,1.4-1.1,2.4-2.5,2.4h-0.7v-4.1c0-0.4-0.4-0.7-0.6-0.7h-6.5c-0.4,0-0.6,0.2-0.6,0.7v4.1h-0.7
		c-1.4,0-2.5-1.1-2.5-2.4v-7.1c0-1.4,1.1-2.5,2.5-2.5h9.4C73,17.3,74.1,18.4,74.1,19.8z M70.9,21.5v-1.1c0-0.4-0.4-0.7-0.6-0.7h-6.5
		c-0.4,0-0.6,0.2-0.6,0.7v1.1c0,0.4,0.4,0.6,0.6,0.6h6.4C70.7,22.1,70.9,21.9,70.9,21.5z"/>
	<path class="st2" d="M92.2,19.8h-6v9.7c-1.2,0-2.2-1-2.2-2.2v-7.5h-6c0-1.4,1.1-2.5,2.5-2.5h9.2C91,17.3,92.2,18.4,92.2,19.8z"/>
	<path class="st2" d="M109,24.6v2.2c0,1.4-1.1,2.5-2.5,2.5h-9.2c-1.4,0-2.5-1.1-2.5-2.5h10.5c0.4,0,0.6-0.2,0.6-0.6v-1.4
		c0-0.4-0.2-0.6-0.6-0.6h-8c-1.4,0-2.5-1.1-2.5-2.5v-2c0-1.4,1.1-2.5,2.5-2.5h9.2c1.4,0,2.5,1.1,2.5,2.5H98.5
		c-0.4,0-0.5,0.2-0.5,0.5v1.9h8.5C107.9,22.1,109,23.3,109,24.6z"/>
	<path d="M109,3.4v7.2c0,1.4-1.1,2.5-2.5,2.5h-9.2c-1.4,0-2.5-1.1-2.5-2.5V3.4c0-1.4,1.1-2.5,2.5-2.5h9.2C107.9,0.9,109,2.1,109,3.4
		z M105.8,10.2V3.9c0-0.4-0.2-0.5-0.5-0.5h-6.7c-0.4,0-0.5,0.2-0.5,0.5V10c0,0.4,0.2,0.6,0.5,0.6h6.7
		C105.5,10.7,105.8,10.4,105.8,10.2z"/>
	<path d="M92.2,6.6v4.1c0,1.4-1.1,2.5-2.5,2.5h-9.2c-1.4,0-2.5-1.1-2.5-2.5V3.4c0-1.4,1.1-2.5,2.5-2.5h9.2c1.4,0,2.5,1.1,2.5,2.5
		H81.7c-0.1,0-0.2,0-0.2,0.1c-0.2,0-0.4,0.2-0.4,0.4V10c0,0.2,0.2,0.5,0.6,0.5h6.6c0.4,0,0.5-0.2,0.5-0.5V8.7c0-0.4-0.2-0.5-0.5-0.5
		h-3.4c-1,0-1.7-0.7-1.7-1.7h9V6.6z"/>
	<path d="M68.5,9.7v1.6c0,0.4-0.2,0.6-0.6,0.6H66c-0.4,0-0.6-0.2-0.6-0.6V9.7c0-0.4,0.2-0.5,0.6-0.5h1.9C68.2,9,68.5,9.3,68.5,9.7z"
		/>
	<path d="M68.5,2.8v1.6c0,0.4-0.2,0.6-0.6,0.6H66c-0.4,0-0.6-0.2-0.6-0.6V2.8c0-0.2,0.2-0.6,0.6-0.6h1.9C68.2,2.2,68.5,2.6,68.5,2.8
		z"/>
	<path d="M56,8.3v2.4c0,1.4-1.1,2.5-2.5,2.5h-9.2c-1.4,0-2.5-1.1-2.5-2.5h10.5c0.4,0,0.6-0.2,0.6-0.6V8.7c0-0.4-0.2-0.5-0.6-0.5h-8
		c-1.4,0-2.5-1.1-2.5-2.5V3.4c0-1.4,1.1-2.5,2.5-2.5h9.2c1.4,0,2.5,1.1,2.5,2.5H45.5c-0.4,0-0.6,0.2-0.6,0.5v1.9h8.5
		C54.9,5.8,56,6.9,56,8.3z"/>
	<path d="M39.2,3.4H28.9c-0.4,0-0.6,0.2-0.6,0.5V10c0,0.4,0.2,0.6,0.6,0.6h10.2c0,1.4-1.1,2.5-2.5,2.5h-9.2c-1.4,0-2.5-1.1-2.5-2.5
		V3.4c0-1.4,1.1-2.5,2.5-2.5h9.2C38,0.9,39.2,2.1,39.2,3.4z"/>
</g>
<g class="st0">
	<path class="st3" d="M36.2-15.1v1.8c0,1.1-0.9,2-2,2h-7.4c-1.1,0-2-0.9-2-2h8.4c0.3,0,0.5-0.2,0.5-0.5v-1.1c0-0.3-0.2-0.5-0.5-0.5
		h-6.4c-1.1,0-2-0.9-2-2V-19c0-1.1,0.9-2,2-2h7.4c1.1,0,2,0.9,2,2h-8.4c-0.3,0-0.5,0.2-0.5,0.4v1.5h6.8
		C35.3-17.1,36.2-16.2,36.2-15.1z"/>
	<path class="st3" d="M49.6-19h-4.7v7.8c-1,0-1.8-0.8-1.8-1.8v-6h-4.8c0-1.1,0.9-2,2-2h7.4C48.7-21,49.6-20.1,49.6-19z"/>
	<path class="st3" d="M64.3-19v5.7c0,1.1-0.9,1.9-2,1.9h-0.6v-3.3c0-0.3-0.3-0.6-0.5-0.6H56c-0.3,0-0.5,0.2-0.5,0.6v3.3h-0.6
		c-1.1,0-2-0.9-2-1.9V-19c0-1.1,0.9-2,2-2h7.5C63.4-21,64.3-20.1,64.3-19z M61.7-17.6v-0.9c0-0.3-0.3-0.6-0.5-0.6H56
		c-0.3,0-0.5,0.2-0.5,0.6v0.9c0,0.3,0.3,0.5,0.5,0.5h5.1C61.5-17.1,61.7-17.3,61.7-17.6z"/>
	<path class="st3" d="M78.8-19h-4.8v7.8c-1,0-1.8-0.8-1.8-1.8v-6h-4.8c0-1.1,0.9-2,2-2h7.4C77.8-21,78.8-20.1,78.8-19z"/>
	<path class="st3" d="M92.3-15.1v1.8c0,1.1-0.9,2-2,2h-7.4c-1.1,0-2-0.9-2-2h8.4c0.3,0,0.5-0.2,0.5-0.5v-1.1c0-0.3-0.2-0.5-0.5-0.5
		h-6.4c-1.1,0-2-0.9-2-2V-19c0-1.1,0.9-2,2-2h7.4c1.1,0,2,0.9,2,2h-8.4c-0.3,0-0.4,0.2-0.4,0.4v1.5h6.8
		C91.3-17.1,92.3-16.2,92.3-15.1z"/>
	<path class="st1" d="M92.3-32.1v5.8c0,1.1-0.9,2-2,2h-7.4c-1.1,0-2-0.9-2-2v-5.8c0-1.1,0.9-2,2-2h7.4
		C91.3-34.1,92.3-33.2,92.3-32.1z M89.6-26.7v-5c0-0.3-0.2-0.4-0.4-0.4h-5.4c-0.3,0-0.4,0.2-0.4,0.4v4.9c0,0.3,0.2,0.5,0.4,0.5h5.4
		C89.4-26.3,89.6-26.5,89.6-26.7z"/>
	<path class="st1" d="M78.8-29.6v3.3c0,1.1-0.9,2-2,2h-7.4c-1.1,0-2-0.9-2-2v-5.8c0-1.1,0.9-2,2-2h7.4c1.1,0,2,0.9,2,2h-8.4
		c-0.1,0-0.2,0-0.2,0.1c-0.2,0-0.3,0.2-0.3,0.3v4.9c0,0.2,0.2,0.4,0.5,0.4h5.3c0.3,0,0.4-0.2,0.4-0.4v-1.1c0-0.3-0.2-0.4-0.4-0.4H73
		c-0.8,0-1.4-0.6-1.4-1.4L78.8-29.6L78.8-29.6z"/>
	<path class="st1" d="M59.7-27.1v1.3c0,0.3-0.2,0.5-0.5,0.5h-1.5c-0.3,0-0.5-0.2-0.5-0.5v-1.3c0-0.3,0.2-0.4,0.5-0.4h1.5
		C59.5-27.6,59.7-27.4,59.7-27.1z"/>
	<path class="st1" d="M59.7-32.6v1.3c0,0.3-0.2,0.5-0.5,0.5h-1.5c-0.3,0-0.5-0.2-0.5-0.5v-1.3c0-0.2,0.2-0.5,0.5-0.5h1.5
		C59.5-33.1,59.7-32.8,59.7-32.6z"/>
	<path class="st1" d="M49.7-28.2v1.9c0,1.1-0.9,2-2,2h-7.4c-1.1,0-2-0.9-2-2h8.4c0.3,0,0.5-0.2,0.5-0.5v-1.1c0-0.3-0.2-0.4-0.5-0.4
		h-6.4c-1.1,0-2-0.9-2-2v-1.8c0-1.1,0.9-2,2-2h7.4c1.1,0,2,0.9,2,2h-8.4c-0.3,0-0.5,0.2-0.5,0.4v1.5h6.8
		C48.8-30.2,49.7-29.3,49.7-28.2z"/>
	<path class="st1" d="M36.2-32.1H28c-0.3,0-0.5,0.2-0.5,0.4v4.9c0,0.3,0.2,0.5,0.5,0.5h8.2c0,1.1-0.9,2-2,2h-7.4c-1.1,0-2-0.9-2-2
		v-5.8c0-1.1,0.9-2,2-2h7.4C35.3-34.1,36.2-33.2,36.2-32.1z"/>
</g>
</svg>
