<?xml version="1.0" encoding="utf-8"?>
<!-- Generator: Adobe Illustrator 23.0.6, SVG Export Plug-In . SVG Version: 6.00 Build 0)  -->
<svg version="1.1" id="Layer_2" xmlns="http://www.w3.org/2000/svg" xmlns:xlink="http://www.w3.org/1999/xlink" x="0px" y="0px"
	 viewBox="0 0 95 30" style="enable-background:new 0 0 95 30;" xml:space="preserve">
<style type="text/css">
	.st0{display:none;}
	.st1{display:inline;}
	.st2{fill:#FF6400;}
</style>
<g>
	<path d="M13.4,4c0.2,0.5,0.4,0.6,1,0.6c1.7,0,3.5,0,5.2,0c0.2,0,0.4,0.1,0.7,0.2c0-0.3,0-0.6,0.1-0.9c0.1,0,0.1,0,0.2,0
		c0,0.2,0,0.4,0,0.6c0,0.2,0,0.4,0.3,0.4c0,0,0.1,0,0.1,0.1c0,0.5,0.4,0.4,0.7,0.4c0.6,0,1.2-0.1,1.8-0.1c0.1,0,0.3,0.1,0.4,0.2
		c-0.1,0.1-0.3,0.2-0.4,0.2c-0.7,0-1.4,0-2,0c-0.4,0-0.8-0.1-1,0.1c-0.8,0.5-1.7,0.1-2.5,0.3c-0.2,0-0.4,0.2-0.6,0.3
		c-0.1,0.1-0.3,0.2-0.4,0.4c-0.1,0.2-0.2,0.4-0.2,0.6c0,0.2,0.1,0.5,0.1,0.7c0.1,0.2,0.1,0.4-0.2,0.5c-0.1,0-0.2,0.2-0.3,0.4
		c-0.1,0.7-0.5,1.2-1,1.6c-0.5,0.4-1,0.2-1.4,0c-0.5-0.2-1-0.4-1.5-0.7c-0.1-0.1-0.2-0.1-0.4-0.2c-0.2,0.3-0.3,0.6,0.1,0.8
		c0.2,0.1,0.3,0.5,0.3,0.7c0,0.7-0.1,1.3-0.1,2c0,0.3-0.2,0.5-0.4,0.8c-0.1,0.1-0.3,0.1-0.5,0.1c-0.3-0.1-0.4,0.1-0.4,0.3
		c0,0.3,0.1,0.7,0.3,0.9c1,1,1.6,2.3,2.1,3.6c0.1,0.3,0.4,0.5,0.5,0.7c0.1,0.3,0.2,0.7,0.2,1.1c0,0.8-0.2,1.7-0.2,2.5
		c0,0,0,0.1,0,0.1c0.3,0.9-0.2,1.7-0.2,2.6c0,0.8,0.7,1.7,1.5,2c0.2,0.1,0.5,0.1,0.6,0.3c0.1,0.1,0.2,0.3,0.2,0.5
		c0,0.1-0.2,0.2-0.3,0.2c-0.8,0-1.7-0.1-2.5-0.1c-0.3,0-0.7-0.1-1,0c-0.6,0-0.7-0.1-0.6-0.7c0.1-0.3,0.3-0.7,0.3-1
		c0-0.6,0-1.3-0.1-1.8c-0.2-1-0.5-1.9-0.4-2.9c0-0.3,0.2-0.7,0.3-1c0.1-0.5-0.1-0.6-0.6-0.7c-0.2,0-0.5-0.2-0.7-0.4
		c-0.4-0.5-0.8-1.1-1.2-1.6c-0.1-0.1-0.1-0.2-0.2-0.2c-0.5,0-0.8-0.3-1-0.7c0,0-0.1,0-0.1,0c-0.4,0.7-0.7,1.4-1.1,2.1
		c-0.1,0.2-0.1,0.5-0.2,0.7c-0.1,0.2-0.2,0.5-0.4,0.7c-0.3,0.5-0.7,1-1,1.5c0,0.1,0,0.2,0,0.3c0,0.3,0,0.6-0.1,0.9
		c-0.2,0.6-0.5,1.2-0.8,1.8c0,0.1-0.1,0.2-0.2,0.2c-0.8,0.7-1.1,1.8-0.7,2.8c0.2,0.5,0.1,0.7-0.5,0.7c-0.4,0-0.8,0-1.2,0
		c-0.4,0-0.6-0.2-0.5-0.6c0.1-0.5,0.2-1,0.3-1.4c0-0.2,0.1-0.5,0.2-0.7c0.1-0.4,0.2-0.7,0.1-1.2c-0.1-0.3,0.1-0.7,0.2-1.1
		c0.1-0.4,0.2-0.8,0.4-1.1c0.2-0.5,0.5-1,0.8-1.5c0.1-0.1,0.1-0.2,0.2-0.3c0.3-0.5,0.4-1,0.4-1.5c0-0.6,0.2-1.3,0.2-2
		c0-0.2,0-0.5-0.1-0.7c0-0.4-0.1-0.8-0.1-1.3c0-0.1,0.1-0.4,0.2-0.4C4.1,15,4.1,14.8,4,14.5C4,14,3.9,13.5,3.9,13
		c0-0.4-0.1-0.9,0.5-1c-0.1-0.1-0.2-0.1-0.2-0.1c-0.7-0.1-0.7-0.1-0.6-0.9c0.1-0.5,0.1-1.1,0.2-1.6c0-0.5,0.1-0.5,0.6-0.5
		C5,8.8,5,8.7,5,8.1C4.9,6.8,5.1,5.6,6.1,4.6c0.5-0.4,1.1-0.7,1.8-0.4c0.1,0,0.2,0,0.2,0c0-0.1,0.1-0.2,0-0.3C7.9,3.3,8,2.8,8.3,2.2
		c0.5-1.1,1.9-1.6,3-1c0.1,0,0.2,0.1,0.2,0.1c1,0.4,0.9,1.2,0.9,2c0,0.3-0.2,0.5-0.5,0.5c-0.4,0.1-0.3,0.4-0.2,0.6
		c0,0.3,0.3,0.2,0.5,0.2c0.2,0,0.5-0.1,0.7-0.2C13.1,4.4,13.2,4.2,13.4,4z M14.4,7.6c0.1,0,0.1,0,0.2,0c0.2-0.2,0.3-0.5,0.5-0.7
		c0,0,0-0.1,0-0.1c-0.3,0-0.6,0.1-0.9,0.1C14.2,7.1,14.3,7.4,14.4,7.6z M14.7,6.7c0,0,0.1,0.1,0.1,0.1c0.2-0.1,0.3-0.2,0.5-0.3
		c0,0-0.1-0.2-0.2-0.3C14.7,6.2,14.7,6.4,14.7,6.7z"/>
</g>
<g class="st0">
	<g class="st1">
		<path d="M30.2-19.9h-7.4c-1.2,0-2.1-0.9-2.1-2.1v-5.8c0-1.2,0.9-2.1,2.1-2.1h7.4c1.2,0,2.1,0.9,2.1,2.1v0H24
			c-0.2,0-0.4,0.2-0.4,0.4v4.9c0,0.2,0.2,0.4,0.4,0.4h8.3v0C32.3-20.9,31.4-19.9,30.2-19.9z M22.8-29.8c-1.1,0-2,0.9-2,2v5.8
			c0,1.1,0.9,2,2,2h7.4c1.1,0,2-0.9,2-2H24c-0.2,0-0.5-0.2-0.5-0.5v-4.9c0-0.2,0.2-0.5,0.5-0.5h8.2c0-1.1-0.9-2-2-2H22.8z"/>
	</g>
	<g class="st1">
		<path d="M43.7-19.9h-7.4c-1.2,0-2.1-0.9-2.1-2.1v0h8.5c0.2,0,0.4-0.2,0.4-0.4v-1.1c0-0.2-0.2-0.4-0.4-0.4h-6.4
			c-1.2,0-2.1-0.9-2.1-2.1v-1.8c0-1.2,0.9-2.1,2.1-2.1h7.4c1.2,0,2.1,0.9,2.1,2.1v0h-8.5c-0.2,0-0.4,0.2-0.4,0.4v1.4h6.7
			c1.2,0,2.1,0.9,2.1,2.1v1.9C45.8-20.9,44.9-19.9,43.7-19.9z M34.3-22c0,1.1,0.9,2,2,2h7.4c1.1,0,2-0.9,2-2v-1.9c0-1.1-0.9-2-2-2
			h-6.8v-1.5c0-0.2,0.2-0.5,0.5-0.5h8.4c0-1.1-0.9-2-2-2h-7.4c-1.1,0-2,0.9-2,2v1.8c0,1.1,0.9,2,2,2h6.4c0.2,0,0.5,0.2,0.5,0.5v1.1
			c0,0.2-0.2,0.5-0.5,0.5H34.3z"/>
	</g>
	<g class="st1">
		<path d="M30.2-7.5h-7.4c-1.2,0-2.1-0.9-2.1-2.1v-5.8c0-1.2,0.9-2.1,2.1-2.1h7.4c1.2,0,2.1,0.9,2.1,2.1v0h-8.5c-0.1,0-0.1,0-0.2,0
			c-0.1,0.1-0.2,0.2-0.2,0.3v4.9c0,0.2,0.2,0.4,0.4,0.4h5.3c0.2,0,0.4-0.2,0.4-0.4v-1.1c0-0.2-0.2-0.4-0.4-0.4h-2.7
			c-0.8,0-1.5-0.7-1.5-1.5v0h7.3v3.4C32.3-8.5,31.4-7.5,30.2-7.5z M22.8-17.4c-1.1,0-2,0.9-2,2v5.8c0,1.1,0.9,2,2,2h7.4
			c1.1,0,2-0.9,2-2v-3.3h-7.1c0,0.7,0.6,1.3,1.4,1.3h2.7c0.2,0,0.5,0.2,0.5,0.5v1.1c0,0.2-0.2,0.5-0.5,0.5h-5.3
			c-0.2,0-0.5-0.2-0.5-0.5V-15c0-0.2,0.1-0.3,0.2-0.4c0.1,0,0.1-0.1,0.2-0.1h8.4c0-1.1-0.9-2-2-2H22.8z"/>
	</g>
	<g class="st1">
		<path d="M43.7-7.5h-7.4c-1.2,0-2.1-0.9-2.1-2.1v-5.8c0-1.2,0.9-2.1,2.1-2.1h7.4c1.2,0,2.1,0.9,2.1,2.1v5.8
			C45.8-8.5,44.9-7.5,43.7-7.5z M36.3-17.4c-1.1,0-2,0.9-2,2v5.8c0,1.1,0.9,2,2,2h7.4c1.1,0,2-0.9,2-2v-5.8c0-1.1-0.9-2-2-2H36.3z
			 M42.7-9.6h-5.3c-0.2,0-0.5-0.2-0.5-0.5V-15c0-0.2,0.2-0.5,0.5-0.5h5.3c0.2,0,0.5,0.2,0.5,0.5v4.9C43.1-9.8,42.9-9.6,42.7-9.6z
			 M37.3-15.3c-0.2,0-0.4,0.2-0.4,0.4v4.9c0,0.2,0.2,0.4,0.4,0.4h5.3c0.2,0,0.4-0.2,0.4-0.4V-15c0-0.2-0.2-0.4-0.4-0.4H37.3z"/>
	</g>
</g>
<g class="st0">
	<g class="st1">
		<path d="M34.3,13.8h-7.4c-1.2,0-2.1-0.9-2.1-2.1V5.9c0-1.2,0.9-2.1,2.1-2.1h7.4c1.2,0,2.1,0.9,2.1,2.1v0h-8.3
			c-0.2,0-0.4,0.2-0.4,0.4v4.9c0,0.2,0.2,0.4,0.4,0.4h8.3v0C36.4,12.8,35.4,13.8,34.3,13.8z M26.9,3.9c-1.1,0-2,0.9-2,2v5.8
			c0,1.1,0.9,2,2,2h7.4c1.1,0,2-0.9,2-2h-8.2c-0.2,0-0.5-0.2-0.5-0.5V6.3c0-0.2,0.2-0.5,0.5-0.5h8.2c0-1.1-0.9-2-2-2H26.9z"/>
	</g>
	<g class="st1">
		<path d="M47.8,13.8h-7.4c-1.2,0-2.1-0.9-2.1-2.1v0h8.5c0.2,0,0.4-0.2,0.4-0.4v-1.1c0-0.2-0.2-0.4-0.4-0.4h-6.4
			c-1.2,0-2.1-0.9-2.1-2.1V5.9c0-1.2,0.9-2.1,2.1-2.1h7.4c1.2,0,2.1,0.9,2.1,2.1v0h-8.5C41.2,6,41,6.1,41,6.3v1.4h6.7
			c1.2,0,2.1,0.9,2.1,2.1v1.9C49.9,12.8,48.9,13.8,47.8,13.8z M38.4,11.7c0,1.1,0.9,2,2,2h7.4c1.1,0,2-0.9,2-2V9.8c0-1.1-0.9-2-2-2
			h-6.8V6.3c0-0.2,0.2-0.5,0.5-0.5h8.4c0-1.1-0.9-2-2-2h-7.4c-1.1,0-2,0.9-2,2v1.8c0,1.1,0.9,2,2,2h6.4c0.2,0,0.5,0.2,0.5,0.5v1.1
			c0,0.2-0.2,0.5-0.5,0.5H38.4z"/>
	</g>
	<g class="st1">
		<path d="M34.3,26.8h-7.4c-1.2,0-2.1-0.9-2.1-2.1v0h8.5c0.2,0,0.4-0.2,0.4-0.4v-1.1c0-0.2-0.2-0.4-0.4-0.4h-6.4
			c-1.2,0-2.1-0.9-2.1-2.1V19c0-1.2,0.9-2.1,2.1-2.1h7.4c1.2,0,2.1,0.9,2.1,2.1v0h-8.5c-0.2,0-0.4,0.2-0.4,0.4v1.4h6.7
			c1.2,0,2.1,0.9,2.1,2.1v1.9C36.4,25.9,35.4,26.8,34.3,26.8z M24.9,24.8c0,1.1,0.9,2,2,2h7.4c1.1,0,2-0.9,2-2v-1.9c0-1.1-0.9-2-2-2
			h-6.8v-1.5c0-0.2,0.2-0.5,0.5-0.5h8.4c0-1.1-0.9-2-2-2h-7.4c-1.1,0-2,0.9-2,2v1.8c0,1.1,0.9,2,2,2h6.4c0.2,0,0.5,0.2,0.5,0.5v1.1
			c0,0.2-0.2,0.5-0.5,0.5H24.9z"/>
	</g>
	<g class="st1">
		<path d="M90.3,26.8h-7.4c-1.2,0-2.1-0.9-2.1-2.1v0h8.5c0.2,0,0.4-0.2,0.4-0.4v-1.1c0-0.2-0.2-0.4-0.4-0.4h-6.4
			c-1.2,0-2.1-0.9-2.1-2.1V19c0-1.2,0.9-2.1,2.1-2.1h7.4c1.2,0,2.1,0.9,2.1,2.1v0h-8.5c-0.2,0-0.4,0.2-0.4,0.4v1.4h6.7
			c1.2,0,2.1,0.9,2.1,2.1v1.9C92.4,25.9,91.4,26.8,90.3,26.8z M80.8,24.8c0,1.1,0.9,2,2,2h7.4c1.1,0,2-0.9,2-2v-1.9c0-1.1-0.9-2-2-2
			h-6.8v-1.5c0-0.2,0.2-0.5,0.5-0.5h8.4c0-1.1-0.9-2-2-2h-7.4c-1.1,0-2,0.9-2,2v1.8c0,1.1,0.9,2,2,2h6.4c0.2,0,0.5,0.2,0.5,0.5v1.1
			c0,0.2-0.2,0.5-0.5,0.5H80.8z"/>
	</g>
	<g class="st1">
		<path d="M76.8,13.8h-7.4c-1.2,0-2.1-0.9-2.1-2.1V5.9c0-1.2,0.9-2.1,2.1-2.1h7.4c1.2,0,2.1,0.9,2.1,2.1v0h-8.5c-0.1,0-0.1,0-0.2,0
			C70.1,6.1,70,6.2,70,6.3v4.9c0,0.2,0.2,0.4,0.4,0.4h5.3c0.2,0,0.4-0.2,0.4-0.4v-1.1c0-0.2-0.2-0.4-0.4-0.4h-2.7
			c-0.8,0-1.5-0.7-1.5-1.5v0h7.3v3.4C78.9,12.8,77.9,13.8,76.8,13.8z M69.4,3.9c-1.1,0-2,0.9-2,2v5.8c0,1.1,0.9,2,2,2h7.4
			c1.1,0,2-0.9,2-2V8.4h-7.1c0,0.7,0.6,1.3,1.4,1.3h2.7c0.2,0,0.5,0.2,0.5,0.5v1.1c0,0.2-0.2,0.5-0.5,0.5h-5.3
			c-0.2,0-0.5-0.2-0.5-0.5V6.3c0-0.2,0.1-0.3,0.2-0.4c0.1,0,0.1-0.1,0.2-0.1h8.4c0-1.1-0.9-2-2-2H69.4z"/>
	</g>
	<g class="st1">
		<path d="M90.3,13.8h-7.4c-1.2,0-2.1-0.9-2.1-2.1V5.9c0-1.2,0.9-2.1,2.1-2.1h7.4c1.2,0,2.1,0.9,2.1,2.1v5.8
			C92.4,12.8,91.4,13.8,90.3,13.8z M82.9,3.9c-1.1,0-2,0.9-2,2v5.8c0,1.1,0.9,2,2,2h7.4c1.1,0,2-0.9,2-2V5.9c0-1.1-0.9-2-2-2H82.9z
			 M89.2,11.7h-5.3c-0.2,0-0.5-0.2-0.5-0.5V6.3c0-0.2,0.2-0.5,0.5-0.5h5.3c0.2,0,0.5,0.2,0.5,0.5v4.9C89.7,11.5,89.5,11.7,89.2,11.7
			z M83.9,6c-0.2,0-0.4,0.2-0.4,0.4v4.9c0,0.2,0.2,0.4,0.4,0.4h5.3c0.2,0,0.4-0.2,0.4-0.4V6.3c0-0.2-0.2-0.4-0.4-0.4H83.9z"/>
	</g>
	<g class="st1">
		<path d="M45.1,26.9h-0.2c-1,0-1.8-0.8-1.8-1.8v-6h-4.8v0c0-1.2,0.9-2.1,2.1-2.1h7.4c1.2,0,2.1,0.9,2.1,2.1v0.1h-4.8V26.9z
			 M45,26.8L45,26.8l0-7.8h4.8c0-1.1-0.9-2-2-2h-7.4c-1.1,0-2,0.9-2,2h4.8v6C43.2,26,44,26.8,45,26.8z"/>
	</g>
	<g class="st1">
		<path d="M74.1,26.9h-0.2c-1,0-1.8-0.8-1.8-1.8v-6h-4.8v0c0-1.2,0.9-2.1,2.1-2.1h7.4c1.2,0,2.1,0.9,2.1,2.1v0.1h-4.8V26.9z
			 M74,26.8L74,26.8l0-7.8h4.8c0-1.1-0.9-2-2-2h-7.4c-1.1,0-2,0.9-2,2h4.8v6C72.2,26,73,26.8,74,26.8z"/>
	</g>
	<g class="st1">
		<path d="M59.3,7.3h-1.5c-0.3,0-0.5-0.2-0.5-0.5V5.4c0-0.3,0.2-0.5,0.5-0.5h1.5c0.3,0,0.5,0.2,0.5,0.5v1.3
			C59.9,7,59.6,7.3,59.3,7.3z M57.8,5c-0.2,0-0.5,0.2-0.5,0.5v1.3c0,0.2,0.2,0.5,0.5,0.5h1.5c0.2,0,0.5-0.2,0.5-0.5V5.4
			c0-0.2-0.2-0.5-0.5-0.5H57.8z"/>
	</g>
	<g class="st1">
		<path d="M59.3,12.7h-1.5c-0.3,0-0.5-0.2-0.5-0.5v-1.3c0-0.3,0.2-0.5,0.5-0.5h1.5c0.3,0,0.5,0.2,0.5,0.5v1.3
			C59.9,12.5,59.6,12.7,59.3,12.7z M57.8,10.4c-0.2,0-0.5,0.2-0.5,0.5v1.3c0,0.2,0.2,0.5,0.5,0.5h1.5c0.2,0,0.5-0.2,0.5-0.5v-1.3
			c0-0.2-0.2-0.5-0.5-0.5H57.8z"/>
	</g>
	<g class="st1">
		<path d="M62.3,26.7h-0.7v-3.4c0-0.2-0.2-0.5-0.5-0.5H56c-0.3,0-0.5,0.2-0.5,0.5v3.4h-0.7c-1.1,0-2-0.9-2-2V19c0-1.1,0.9-2,2-2h7.5
			c1.1,0,2,0.9,2,2v5.7C64.4,25.8,63.5,26.7,62.3,26.7z M61.7,26.6h0.6c1.1,0,2-0.9,2-2V19c0-1.1-0.9-2-2-2h-7.5c-1.1,0-2,0.9-2,2
			v5.7c0,1.1,0.9,2,2,2h0.6v-3.3c0-0.3,0.2-0.5,0.5-0.5h5.1c0.3,0,0.5,0.2,0.5,0.5V26.6z M61.2,20.9H56c-0.3,0-0.5-0.2-0.5-0.5v-0.9
			c0-0.3,0.2-0.5,0.5-0.5h5.1c0.3,0,0.5,0.2,0.5,0.5v0.9C61.7,20.7,61.5,20.9,61.2,20.9z M56,19.1c-0.3,0-0.5,0.2-0.5,0.5v0.9
			c0,0.2,0.2,0.5,0.5,0.5h5.1c0.2,0,0.5-0.2,0.5-0.5v-0.9c0-0.2-0.2-0.5-0.5-0.5H56z"/>
	</g>
</g>
<g>
	<g>
		<g id="XMLID_1_">
			<g>
				<path class="st2" d="M36.3,22.9v1.8c0,1.1-0.9,2-2,2h-7.4c-1.1,0-2-0.9-2-2h8.4c0.3,0,0.5-0.2,0.5-0.5v-1.1
					c0-0.3-0.2-0.5-0.5-0.5h-6.4c-1.1,0-2-0.9-2-2V19c0-1.1,0.9-2,2-2h7.4c1.1,0,2,0.9,2,2h-8.4c-0.3,0-0.5,0.2-0.5,0.4v1.5h6.8
					C35.4,20.9,36.3,21.8,36.3,22.9z"/>
				<path class="st2" d="M49.7,19H45v7.8c-1,0-1.8-0.8-1.8-1.8v-6h-4.8c0-1.1,0.9-2,2-2h7.4C48.8,17,49.7,17.9,49.7,19z"/>
				<path class="st2" d="M64.3,19v5.7c0,1.1-0.9,1.9-2,1.9h-0.6v-3.3c0-0.3-0.3-0.6-0.5-0.6H56c-0.3,0-0.5,0.2-0.5,0.6v3.3h-0.6
					c-1.1,0-2-0.9-2-1.9V19c0-1.1,0.9-2,2-2h7.5C63.4,17,64.3,17.9,64.3,19z M61.7,20.4v-0.9c0-0.3-0.3-0.6-0.5-0.6H56
					c-0.3,0-0.5,0.2-0.5,0.6v0.9c0,0.3,0.3,0.5,0.5,0.5h5.1C61.5,20.9,61.7,20.7,61.7,20.4z"/>
				<path class="st2" d="M78.8,19H74v7.8c-1,0-1.8-0.8-1.8-1.8v-6h-4.8c0-1.1,0.9-2,2-2h7.4C77.9,17,78.8,17.9,78.8,19z"/>
				<path class="st2" d="M92.3,22.9v1.8c0,1.1-0.9,2-2,2h-7.4c-1.1,0-2-0.9-2-2h8.4c0.3,0,0.5-0.2,0.5-0.5v-1.1
					c0-0.3-0.2-0.5-0.5-0.5h-6.4c-1.1,0-2-0.9-2-2V19c0-1.1,0.9-2,2-2h7.4c1.1,0,2,0.9,2,2h-8.4c-0.3,0-0.4,0.2-0.4,0.4v1.5h6.8
					C91.4,20.9,92.3,21.8,92.3,22.9z"/>
				<path d="M92.3,5.9v5.8c0,1.1-0.9,2-2,2h-7.4c-1.1,0-2-0.9-2-2V5.9c0-1.1,0.9-2,2-2h7.4C91.4,3.9,92.3,4.8,92.3,5.9z M89.7,11.3
					V6.3c0-0.3-0.2-0.4-0.4-0.4h-5.4c-0.3,0-0.4,0.2-0.4,0.4v4.9c0,0.3,0.2,0.5,0.4,0.5h5.4C89.5,11.7,89.7,11.5,89.7,11.3z"/>
				<path d="M78.8,8.4v3.3c0,1.1-0.9,2-2,2h-7.4c-1.1,0-2-0.9-2-2V5.9c0-1.1,0.9-2,2-2h7.4c1.1,0,2,0.9,2,2h-8.4
					c-0.1,0-0.2,0-0.2,0.1C70,6,69.9,6.2,69.9,6.3v4.9c0,0.2,0.2,0.4,0.5,0.4h5.3c0.3,0,0.4-0.2,0.4-0.4v-1.1c0-0.3-0.2-0.4-0.4-0.4
					h-2.7c-0.8,0-1.4-0.6-1.4-1.4H78.8z"/>
				<path d="M59.8,10.9v1.3c0,0.3-0.2,0.5-0.5,0.5h-1.5c-0.3,0-0.5-0.2-0.5-0.5v-1.3c0-0.3,0.2-0.4,0.5-0.4h1.5
					C59.6,10.4,59.8,10.6,59.8,10.9z"/>
				<path d="M59.8,5.4v1.3c0,0.3-0.2,0.5-0.5,0.5h-1.5c-0.3,0-0.5-0.2-0.5-0.5V5.4c0-0.2,0.2-0.5,0.5-0.5h1.5
					C59.6,4.9,59.8,5.2,59.8,5.4z"/>
				<path d="M49.8,9.8v1.9c0,1.1-0.9,2-2,2h-7.4c-1.1,0-2-0.9-2-2h8.4c0.3,0,0.5-0.2,0.5-0.5v-1.1c0-0.3-0.2-0.4-0.5-0.4h-6.4
					c-1.1,0-2-0.9-2-2V5.9c0-1.1,0.9-2,2-2h7.4c1.1,0,2,0.9,2,2h-8.4c-0.3,0-0.5,0.2-0.5,0.4v1.5h6.8C48.9,7.8,49.8,8.7,49.8,9.8z"
					/>
				<path d="M36.3,5.9h-8.2c-0.3,0-0.5,0.2-0.5,0.4v4.9c0,0.3,0.2,0.5,0.5,0.5h8.2c0,1.1-0.9,2-2,2h-7.4c-1.1,0-2-0.9-2-2V5.9
					c0-1.1,0.9-2,2-2h7.4C35.4,3.9,36.3,4.8,36.3,5.9z"/>
				<path d="M92.4,22.9v1.8c0,1.2-0.9,2.1-2.1,2.1h-7.4c-1.2,0-2.1-0.9-2.1-2.1v0h8.5c0.2,0,0.4-0.2,0.4-0.4v-1.1
					c0-0.2-0.2-0.4-0.4-0.4h-6.4c-1.2,0-2.1-1-2.1-2.1V19c0-1.2,0.9-2.1,2.1-2.1h7.4c1.2,0,2.1,0.9,2.1,2.1v0h-8.5
					c-0.2,0-0.4,0.2-0.4,0.4v1.4h6.7C91.4,20.8,92.4,21.7,92.4,22.9z M92.3,24.7v-1.8c0-1.1-0.9-2-2-2h-6.8v-1.5
					c0-0.3,0.2-0.4,0.4-0.4h8.4c0-1.1-0.9-2-2-2h-7.4c-1.1,0-2,0.9-2,2v1.8c0,1.1,0.9,2,2,2h6.4c0.3,0,0.5,0.2,0.5,0.5v1.1
					c0,0.3-0.2,0.5-0.5,0.5h-8.4c0,1.1,0.9,2,2,2h7.4C91.4,26.7,92.3,25.8,92.3,24.7z"/>
				<path d="M92.3,5.9v5.8c0,1.1-0.9,2.1-2.1,2.1h-7.4c-1.2,0-2.1-0.9-2.1-2.1V5.9c0-1.2,0.9-2.1,2.1-2.1h7.4
					C91.4,3.8,92.3,4.8,92.3,5.9z M92.3,11.7V5.9c0-1.1-0.9-2-2-2h-7.4c-1.1,0-2,0.9-2,2v5.8c0,1.1,0.9,2,2,2h7.4
					C91.4,13.7,92.3,12.8,92.3,11.7z"/>
				<path d="M89.7,6.3v4.9c0,0.3-0.2,0.5-0.4,0.5h-5.4c-0.3,0-0.4-0.2-0.4-0.5V6.3c0-0.3,0.2-0.4,0.4-0.4h5.4
					C89.5,5.9,89.7,6.1,89.7,6.3z M89.6,11.3V6.3c0-0.2-0.2-0.4-0.4-0.4h-5.4c-0.2,0-0.4,0.2-0.4,0.4v4.9c0,0.2,0.2,0.4,0.4,0.4h5.4
					C89.4,11.6,89.6,11.5,89.6,11.3z"/>
				<path d="M78.9,19L78.9,19l-4.8,0.1v7.8h-0.2c-1,0-1.8-0.8-1.8-1.8v-6h-4.8v0c0-1.2,0.9-2.1,2.1-2.1h7.4
					C77.9,16.9,78.9,17.8,78.9,19z M74,19h4.8c0-1.1-0.9-2-2-2h-7.4c-1.1,0-2,0.9-2,2h4.8v6c0,1,0.8,1.8,1.8,1.8V19z"/>
				<path d="M78.9,8.3v3.4c0,1.1-0.9,2.1-2.1,2.1h-7.4c-1.2,0-2.1-0.9-2.1-2.1V5.9c0-1.2,0.9-2.1,2.1-2.1h7.4c1.2,0,2.1,0.9,2.1,2.1
					v0h-8.5c-0.1,0-0.1,0-0.2,0.1C70.1,6.1,70,6.2,70,6.3v4.9c0,0.2,0.2,0.4,0.4,0.4h5.3c0.2,0,0.4-0.2,0.4-0.4v-1.1
					c0-0.2-0.2-0.4-0.4-0.4h-2.7c-0.8,0-1.5-0.7-1.5-1.5v0H78.9z M78.8,11.7V8.4h-7.1c0,0.7,0.6,1.4,1.4,1.4h2.7
					c0.3,0,0.4,0.2,0.4,0.4v1.1c0,0.2-0.2,0.4-0.4,0.4h-5.3c-0.3,0-0.5-0.2-0.5-0.4V6.3c0-0.2,0.1-0.3,0.2-0.4
					c0.1,0,0.1-0.1,0.2-0.1h8.4c0-1.1-0.9-2-2-2h-7.4c-1.1,0-2,0.9-2,2v5.8c0,1.1,0.9,2,2,2h7.4C77.9,13.7,78.8,12.8,78.8,11.7z"/>
				<path d="M64.4,19v5.7c0,1.1-0.9,2-2.1,2h-0.8v-3.4c0-0.3-0.2-0.5-0.4-0.5H56c-0.3,0-0.5,0.2-0.5,0.5v3.4h-0.7
					c-1.1,0-2.1-0.9-2.1-2V19c0-1.1,0.9-2,2.1-2h7.5C63.5,17,64.4,17.9,64.4,19z M64.3,24.7V19c0-1.1-0.9-2-2-2h-7.5
					c-1.1,0-2,0.9-2,2v5.7c0,1.1,0.9,1.9,2,1.9h0.6v-3.3c0-0.3,0.2-0.6,0.5-0.6h5.1c0.3,0,0.5,0.3,0.5,0.6v3.3h0.6
					C63.4,26.6,64.3,25.8,64.3,24.7z"/>
				<path d="M61.7,19.5v0.9c0,0.3-0.3,0.5-0.5,0.5H56c-0.3,0-0.5-0.3-0.5-0.5v-0.9c0-0.3,0.2-0.6,0.5-0.6h5.1
					C61.5,19,61.7,19.2,61.7,19.5z M61.6,20.4v-0.9c0-0.3-0.2-0.5-0.5-0.5H56c-0.3,0-0.4,0.2-0.4,0.5v0.9c0,0.3,0.2,0.4,0.4,0.4h5.1
					C61.4,20.8,61.6,20.6,61.6,20.4z"/>
				<path d="M59.9,5.4v1.3c0,0.3-0.3,0.6-0.5,0.6h-1.5c-0.3,0-0.5-0.3-0.5-0.6V5.4c0-0.3,0.3-0.6,0.5-0.6h1.5
					C59.6,4.8,59.9,5.1,59.9,5.4z M59.8,6.7V5.4c0-0.2-0.2-0.5-0.5-0.5h-1.5c-0.3,0-0.5,0.2-0.5,0.5v1.3c0,0.3,0.2,0.5,0.5,0.5h1.5
					C59.6,7.2,59.8,7,59.8,6.7z"/>
				<path d="M59.9,10.9v1.3c0,0.3-0.3,0.6-0.5,0.6h-1.5c-0.3,0-0.5-0.2-0.5-0.6v-1.3c0-0.3,0.2-0.6,0.5-0.6h1.5
					C59.6,10.3,59.9,10.6,59.9,10.9z M59.8,12.2v-1.3c0-0.3-0.2-0.4-0.5-0.4h-1.5c-0.3,0-0.5,0.2-0.5,0.4v1.3c0,0.3,0.2,0.5,0.5,0.5
					h1.5C59.6,12.6,59.8,12.4,59.8,12.2z"/>
				<path d="M49.9,9.8v1.9c0,1.1-0.9,2.1-2.1,2.1h-7.4c-1.1,0-2.1-0.9-2.1-2.1v0h8.5c0.2,0,0.4-0.2,0.4-0.4v-1.1
					c0-0.2-0.2-0.4-0.4-0.4h-6.4c-1.1,0-2.1-0.9-2.1-2.1V5.9c0-1.2,0.9-2.1,2.1-2.1h7.4c1.2,0,2.1,0.9,2.1,2.1v0h-8.5
					C41.2,6,41,6.1,41,6.3v1.4h6.8C48.9,7.7,49.9,8.7,49.9,9.8z M49.8,11.7V9.8c0-1.1-0.9-2-2-2H41V6.3c0-0.3,0.2-0.4,0.5-0.4h8.4
					c0-1.1-0.9-2-2-2h-7.4c-1.1,0-2,0.9-2,2v1.8c0,1.1,0.9,2,2,2h6.4c0.3,0,0.5,0.2,0.5,0.4v1.1c0,0.3-0.2,0.5-0.5,0.5h-8.4
					c0,1.1,0.9,2,2,2h7.4C48.9,13.7,49.8,12.8,49.8,11.7z"/>
				<path d="M49.8,19L49.8,19l-4.8,0.1v7.8h-0.2c-1,0-1.8-0.8-1.8-1.8v-6h-4.8v0c0-1.2,0.9-2.1,2.1-2.1h7.4
					C48.9,16.9,49.8,17.8,49.8,19z M45,19h4.8c0-1.1-0.9-2-2-2h-7.4c-1.1,0-2,0.9-2,2h4.8v6c0,1,0.8,1.8,1.8,1.8V19z"/>
				<path d="M36.4,22.9v1.8c0,1.2-0.9,2.1-2.1,2.1h-7.4c-1.2,0-2.1-0.9-2.1-2.1v0h8.5c0.2,0,0.4-0.2,0.4-0.4v-1.1
					c0-0.2-0.2-0.4-0.4-0.4h-6.4c-1.2,0-2.1-1-2.1-2.1V19c0-1.2,0.9-2.1,2.1-2.1h7.4c1.2,0,2.1,0.9,2.1,2.1v0h-8.5
					c-0.2,0-0.4,0.2-0.4,0.4v1.4h6.7C35.4,20.8,36.4,21.7,36.4,22.9z M36.3,24.7v-1.8c0-1.1-0.9-2-2-2h-6.8v-1.5
					c0-0.3,0.2-0.4,0.5-0.4h8.4c0-1.1-0.9-2-2-2h-7.4c-1.1,0-2,0.9-2,2v1.8c0,1.1,0.9,2,2,2h6.4c0.3,0,0.5,0.2,0.5,0.5v1.1
					c0,0.3-0.2,0.5-0.5,0.5h-8.4c0,1.1,0.9,2,2,2h7.4C35.4,26.7,36.3,25.8,36.3,24.7z"/>
				<path d="M36.4,11.6L36.4,11.6c0,1.2-0.9,2.1-2.1,2.1h-7.4c-1.2,0-2.1-0.9-2.1-2.1V5.9c0-1.2,0.9-2.1,2.1-2.1h7.4
					c1.2,0,2.1,0.9,2.1,2.1v0h-8.3c-0.2,0-0.4,0.2-0.4,0.4v4.9c0,0.2,0.2,0.4,0.4,0.4H36.4z M28.1,5.9h8.2c0-1.1-0.9-2-2-2h-7.4
					c-1.1,0-2,0.9-2,2v5.8c0,1.1,0.9,2,2,2h7.4c1.1,0,2-0.9,2-2h-8.2c-0.3,0-0.5-0.2-0.5-0.5V6.3C27.7,6.1,27.9,5.9,28.1,5.9z"/>
			</g>
		</g>
	</g>
</g>
</svg>
