<?xml version="1.0" encoding="utf-8"?>
<!-- Generator: Adobe Illustrator 23.0.6, SVG Export Plug-In . SVG Version: 6.00 Build 0)  -->
<svg version="1.1" id="Layer_2" xmlns="http://www.w3.org/2000/svg" xmlns:xlink="http://www.w3.org/1999/xlink" x="0px" y="0px"
	 viewBox="0 0 110 30" style="enable-background:new 0 0 110 30;" xml:space="preserve">
<style type="text/css">
	.st0{fill:#FF6400;}
	.st1{display:none;}
	.st2{display:inline;fill:#FF6400;}
</style>
<path d="M13.4,4c0.2,0.5,0.4,0.6,1,0.6c1.7,0,3.5,0,5.2,0c0.2,0,0.4,0.1,0.7,0.2c0-0.3,0-0.6,0.1-0.9c0.1,0,0.1,0,0.2,0
	c0,0.2,0,0.4,0,0.6s0,0.4,0.3,0.4c0,0,0.1,0,0.1,0.1c0,0.5,0.4,0.4,0.7,0.4c0.6,0,1.2-0.1,1.8-0.1c0.1,0,0.3,0.1,0.4,0.2
	c-0.1,0.1-0.3,0.2-0.4,0.2c-0.7,0-1.4,0-2,0c-0.4,0-0.8-0.1-1,0.1c-0.8,0.5-1.7,0.1-2.5,0.3c-0.2,0-0.4,0.2-0.6,0.3
	c-0.1,0.1-0.3,0.2-0.4,0.4c-0.1,0.2-0.2,0.4-0.2,0.6s0.1,0.5,0.1,0.7C17,8.3,17,8.5,16.7,8.6c-0.1,0-0.2,0.2-0.3,0.4
	c-0.1,0.7-0.5,1.2-1,1.6c-0.5,0.4-1,0.2-1.4,0c-0.5-0.2-1-0.4-1.5-0.7c-0.1-0.1-0.2-0.1-0.4-0.2c-0.2,0.3-0.3,0.6,0.1,0.8
	c0.2,0.1,0.3,0.5,0.3,0.7c0,0.7-0.1,1.3-0.1,2c0,0.3-0.2,0.5-0.4,0.8c-0.1,0.1-0.3,0.1-0.5,0.1c-0.3-0.1-0.4,0.1-0.4,0.3
	c0,0.3,0.1,0.7,0.3,0.9c1,1,1.6,2.3,2.1,3.6c0.1,0.3,0.4,0.5,0.5,0.7c0.1,0.3,0.2,0.7,0.2,1.1c0,0.8-0.2,1.7-0.2,2.5v0.1
	c0.3,0.9-0.2,1.7-0.2,2.6c0,0.8,0.7,1.7,1.5,2c0.2,0.1,0.5,0.1,0.6,0.3c0.1,0.1,0.2,0.3,0.2,0.5c0,0.1-0.2,0.2-0.3,0.2
	c-0.8,0-1.7-0.1-2.5-0.1c-0.3,0-0.7-0.1-1,0c-0.6,0-0.7-0.1-0.6-0.7c0.1-0.3,0.3-0.7,0.3-1c0-0.6,0-1.3-0.1-1.8
	c-0.2-1-0.5-1.9-0.4-2.9c0-0.3,0.2-0.7,0.3-1c0.1-0.5-0.1-0.6-0.6-0.7c-0.2,0-0.5-0.2-0.7-0.4c-0.4-0.5-0.8-1.1-1.2-1.6
	c-0.1-0.1-0.1-0.2-0.2-0.2c-0.5,0-0.8-0.3-1-0.7H8c-0.4,0.7-0.7,1.4-1.1,2.1c-0.1,0.2-0.1,0.5-0.2,0.7s-0.2,0.5-0.4,0.7
	c-0.3,0.5-0.7,1-1,1.5c0,0.1,0,0.2,0,0.3c0,0.3,0,0.6-0.1,0.9c-0.2,0.6-0.5,1.2-0.8,1.8c0,0.1-0.1,0.2-0.2,0.2
	c-0.8,0.7-1.1,1.8-0.7,2.8c0.2,0.5,0.1,0.7-0.5,0.7c-0.4,0-0.8,0-1.2,0s-0.6-0.2-0.5-0.6c0.1-0.5,0.2-1,0.3-1.4
	c0-0.2,0.1-0.5,0.2-0.7c0.1-0.4,0.2-0.7,0.1-1.2c-0.1-0.3,0.1-0.7,0.2-1.1s0.2-0.8,0.4-1.1c0.2-0.5,0.5-1,0.8-1.5
	c0.1-0.1,0.1-0.2,0.2-0.3c0.3-0.5,0.4-1,0.4-1.5c0-0.6,0.2-1.3,0.2-2c0-0.2,0-0.5-0.1-0.7c0-0.4-0.1-0.8-0.1-1.3
	c0-0.1,0.1-0.4,0.2-0.4c0-0.7,0-0.9-0.1-1.2c0-0.5-0.1-1-0.1-1.5c0-0.4-0.1-0.9,0.5-1c-0.1-0.1-0.2-0.1-0.2-0.1
	c-0.7-0.1-0.7-0.1-0.6-0.9c0.1-0.5,0.1-1.1,0.2-1.6c0-0.5,0.1-0.5,0.6-0.5C5,8.8,5,8.7,5,8.1C4.9,6.8,5.1,5.6,6.1,4.6
	c0.5-0.4,1.1-0.7,1.8-0.4c0.1,0,0.2,0,0.2,0c0-0.1,0.1-0.2,0-0.3C7.9,3.3,8,2.8,8.3,2.2c0.5-1.1,1.9-1.6,3-1c0.1,0,0.2,0.1,0.2,0.1
	c1,0.4,0.9,1.2,0.9,2c0,0.3-0.2,0.5-0.5,0.5c-0.4,0.1-0.3,0.4-0.2,0.6c0,0.3,0.3,0.2,0.5,0.2s0.5-0.1,0.7-0.2
	C13.1,4.4,13.2,4.2,13.4,4z M14.4,7.6c0.1,0,0.1,0,0.2,0c0.2-0.2,0.3-0.5,0.5-0.7V6.8c-0.3,0-0.6,0.1-0.9,0.1
	C14.2,7.1,14.3,7.4,14.4,7.6z M14.7,6.7l0.1,0.1c0.2-0.1,0.3-0.2,0.5-0.3c0,0-0.1-0.2-0.2-0.3C14.7,6.2,14.7,6.4,14.7,6.7z"/>
<path d="M28.2,6.2v5.6c0,0.3,0.2,0.5,0.5,0.5h10.5v0.3c0,1.4-1.1,2.5-2.5,2.5h-9.3c-1.4,0-2.5-1.1-2.5-2.5V5.4
	c0-1.4,1.1-2.5,2.5-2.5h9.3c1.4,0,2.5,1.1,2.5,2.5v0.3H28.7C28.5,5.7,28.2,5.9,28.2,6.2z"/>
<path d="M45.1,7.6h8.5c1.4,0,2.5,1.1,2.5,2.5v2.5c0,1.4-1.1,2.5-2.5,2.5h-9.3c-1.4,0-2.5-1.1-2.5-2.5v-0.3h11v-1.4
	c0-0.3-0.2-0.5-0.5-0.5h-8c-1.4,0-2.5-1.1-2.5-2.5V5.4c0-1.4,1.1-2.5,2.5-2.5h9.3C54.9,2.9,56,4,56,5.4v0.3H45.6
	c-0.3,0-0.5,0.2-0.5,0.5V7.6z"/>
<path d="M78.7,11.8c0,0.3,0.2,0.5,0.5,0.5h6.7c0.3,0,0.5-0.2,0.5-0.5v-0.9c0-0.3-0.2-0.5-0.5-0.5h-2.8c-1.4,0-2.5-1.1-2.5-2.5V7.6
	h9.1v5c0,1.4-1.1,2.5-2.5,2.5h-9.3c-1.4,0-2.5-1.1-2.5-2.5V5.4c0-1.4,1.1-2.5,2.5-2.5h9.3c1.4,0,2.5,1.1,2.5,2.5v0.3H79.2
	c-0.3,0-0.5,0.2-0.5,0.5V11.8z"/>
<path d="M104,2.9h-9.2c-1.4,0-2.5,1.1-2.5,2.5v7.3c0,1.4,1.1,2.5,2.5,2.5h9.3c1.4,0,2.5-1.1,2.5-2.5V5.4C106.5,4,105.4,2.9,104,2.9z
	 M103.2,11.3c0,0.6-0.5,1-1,1h-5.7c-0.6,0-1-0.4-1-1V6.7c0-0.6,0.4-1,1-1h5.7c0.5,0,1,0.4,1,1V11.3z"/>
<g>
	<path class="st0" d="M104.8,18.4h-6.6c-1,0-1.8,0.8-1.8,1.8v5.2c0,1,0.8,1.8,1.8,1.8h6.6c1,0,1.8-0.8,1.8-1.8v-0.2h-7.4
		c-0.2,0-0.4-0.1-0.4-0.4v-1h6c1,0,1.8-0.8,1.8-1.8v-1.8C106.6,19.2,105.8,18.4,104.8,18.4z M104.3,20.8v0.6c0,0.2-0.1,0.4-0.4,0.4
		h-5.1v-1c0-0.1,0.1-0.2,0.1-0.3c0.1,0,0.1-0.1,0.2-0.1h4.7C104.1,20.5,104.3,20.6,104.3,20.8z"/>
	<path class="st0" d="M69,18.4h-6.5c-1,0-1.8,0.8-1.8,1.8v5.2c0,1,0.8,1.8,1.8,1.8h0.6v-3.3H69c1,0,1.8-0.8,1.8-1.8v-1.8
		C70.8,19.2,70,18.4,69,18.4z M63.1,20.8c0-0.2,0.1-0.4,0.4-0.4h4.7c0.2,0,0.4,0.1,0.4,0.4v0.6c0,0.2-0.1,0.4-0.4,0.4h-5V20.8z"/>
	<path class="st0" d="M81,18.4h-6.6c-1,0-1.8,0.8-1.8,1.8v5.2c0,1,0.8,1.8,1.8,1.8H75v-3.3h5.4v3.3h0.6c1,0,1.8-0.8,1.8-1.8v-5.2
		C82.7,19.2,82,18.4,81,18.4z M80.4,21.7H75v-1c0-0.2,0.1-0.4,0.4-0.4h4.7c0.2,0,0.4,0.1,0.4,0.4V21.7z"/>
	<path class="st0" d="M27.2,20.8v4c0,0.2,0.1,0.4,0.4,0.4H35v0.2c0,1-0.8,1.8-1.8,1.8h-6.6c-1,0-1.8-0.8-1.8-1.8v-5.2
		c0-1,0.8-1.8,1.8-1.8h6.6c1,0,1.8,0.8,1.8,1.8v0.2h-7.4C27.4,20.5,27.2,20.6,27.2,20.8z"/>
	<path class="st0" d="M38.6,18.4h6.6c1,0,1.8,0.8,1.8,1.8v5.2c0,1-0.8,1.8-1.8,1.8h-6.6c-1,0-1.8-0.8-1.8-1.8v-5.2
		C36.9,19.2,37.6,18.4,38.6,18.4z M39.2,24.4c0,0.4,0.4,0.7,0.7,0.7h4c0.4,0,0.7-0.3,0.7-0.7v-3.3c0-0.4-0.3-0.7-0.7-0.7h-4
		c-0.4,0-0.7,0.3-0.7,0.7V24.4z"/>
	<path class="st0" d="M58.9,20.2v5.2c0,1-0.8,1.8-1.8,1.8h-0.6v-6.3c0-0.2-0.1-0.4-0.4-0.4h-1v6.7h-1c-1,0-1.8-0.8-1.8-1.8v-4.9h-1
		c-0.2,0-0.4,0.1-0.4,0.4v6.3h-0.6c-1,0-1.8-0.8-1.8-1.8v-5.2c0-1,0.8-1.8,1.8-1.8h6.6C58.1,18.4,58.9,19.2,58.9,20.2z"/>
	<path class="st0" d="M92.9,18.4h-6.6c-1,0-1.8,0.8-1.8,1.8v5.2c0,1,0.8,1.8,1.8,1.8h0.6v-3.3h2.3l2.8,2.8c0.3,0.3,0.7,0.5,1.1,0.5
		l0,0c0.1,0,0.1,0,0.1,0c0.4,0,0.9-0.2,1.3-0.5l0.1-0.1l-0.2-0.2L92,23.8h0.9c1,0,1.8-0.8,1.8-1.8v-1.8
		C94.7,19.2,93.9,18.4,92.9,18.4z M86.9,21.7v-1c0-0.2,0.1-0.4,0.4-0.4H92c0.2,0,0.4,0.1,0.4,0.4v0.6c0,0.2-0.1,0.4-0.4,0.4H86.9z"
		/>
</g>
<g class="st1">
	<path class="st2" d="M167.7-38.1h-9.3c-1.4,0-2.5,1.1-2.5,2.5v7.3c0,1.4,1.1,2.5,2.5,2.5h9.3c1.4,0,2.5-1.1,2.5-2.5v-0.3h-10.5
		c-0.3,0-0.5-0.2-0.5-0.5v-1.4h8.5c1.4,0,2.5-1.1,2.5-2.5v-2.5C170.2-36.9,169.1-38.1,167.7-38.1z M166.9-34.7v0.9
		c0,0.3-0.2,0.5-0.5,0.5h-7.2v-1.4c0-0.2,0.1-0.3,0.2-0.4c0.1,0,0.2-0.1,0.3-0.1h6.7C166.7-35.2,166.9-35,166.9-34.7z"/>
	<path class="st2" d="M117.1-38.1h-9.2c-1.4,0-2.5,1.1-2.5,2.5v7.3c0,1.4,1.1,2.5,2.5,2.5h0.8v-4.7h8.4c1.4,0,2.5-1.1,2.5-2.5v-2.5
		C119.6-36.9,118.5-38.1,117.1-38.1z M108.7-34.7c0-0.3,0.2-0.5,0.5-0.5h6.6c0.3,0,0.5,0.2,0.5,0.5v0.9c0,0.3-0.2,0.5-0.5,0.5h-7.1
		V-34.7z"/>
	<path class="st2" d="M134-38.1h-9.3c-1.4,0-2.5,1.1-2.5,2.5v7.3c0,1.4,1.1,2.5,2.5,2.5h0.8v-4.7h7.6v4.7h0.8c1.4,0,2.5-1.1,2.5-2.5
		v-7.3C136.5-36.9,135.4-38.1,134-38.1z M133.2-33.4h-7.6v-1.4c0-0.3,0.2-0.5,0.5-0.5h6.6c0.3,0,0.5,0.2,0.5,0.5V-33.4z"/>
	<path class="st2" d="M58.1-34.7v5.6c0,0.3,0.2,0.5,0.5,0.5h10.5v0.3c0,1.4-1.1,2.5-2.5,2.5h-9.3c-1.4,0-2.5-1.1-2.5-2.5v-7.3
		c0-1.4,1.1-2.5,2.5-2.5h9.3c1.4,0,2.5,1.1,2.5,2.5v0.3H58.6C58.4-35.2,58.1-35,58.1-34.7z"/>
	<path class="st2" d="M74.2-38.1h9.3c1.4,0,2.5,1.1,2.5,2.5v7.3c0,1.4-1.1,2.5-2.5,2.5h-9.3c-1.4,0-2.5-1.1-2.5-2.5v-7.3
		C71.7-36.9,72.8-38.1,74.2-38.1z M75-29.6c0,0.6,0.5,1,1,1h5.7c0.6,0,1-0.4,1-1v-4.6c0-0.6-0.4-1-1-1H76c-0.5,0-1,0.4-1,1V-29.6z"
		/>
	<path class="st2" d="M102.8-35.6v7.3c0,1.4-1.1,2.5-2.5,2.5h-0.8v-8.9c0-0.3-0.2-0.5-0.5-0.5h-1.4v9.4h-1.4c-1.4,0-2.5-1.1-2.5-2.5
		v-6.9h-1.4c-0.3,0-0.5,0.2-0.5,0.5v8.9H91c-1.4,0-2.5-1.1-2.5-2.5v-7.3c0-1.4,1.1-2.5,2.5-2.5h9.3
		C101.7-38.1,102.8-36.9,102.8-35.6z"/>
	<path class="st2" d="M150.9-38.1h-9.3c-1.4,0-2.5,1.1-2.5,2.5v7.3c0,1.4,1.1,2.5,2.5,2.5h0.8v-4.7h3.2l4,4c0.4,0.4,1,0.7,1.5,0.7
		l0,0c0.1,0,0.1,0,0.2,0c0.6,0,1.3-0.3,1.8-0.7l0.2-0.2L153-27l-3.4-3.5h1.3c1.4,0,2.5-1.1,2.5-2.5v-2.5
		C153.4-36.9,152.2-38.1,150.9-38.1z M142.4-33.4v-1.4c0-0.3,0.2-0.5,0.5-0.5h6.7c0.3,0,0.5,0.2,0.5,0.5v0.9c0,0.3-0.2,0.5-0.5,0.5
		H142.4z"/>
</g>
<path d="M67.2,8.1h-2.8c-0.3,0-0.5-0.2-0.5-0.5V5.3c0-0.3,0.2-0.5,0.5-0.5h2.8c0.3,0,0.5,0.2,0.5,0.5v2.3
	C67.7,7.9,67.5,8.1,67.2,8.1z"/>
<path d="M67.2,13.2h-2.8c-0.3,0-0.5-0.2-0.5-0.5v-2.3c0-0.3,0.2-0.5,0.5-0.5h2.8c0.3,0,0.5,0.2,0.5,0.5v2.3
	C67.7,13,67.5,13.2,67.2,13.2z"/>
</svg>
