<?xml version="1.0" encoding="utf-8"?>
<!-- Generator: Adobe Illustrator 23.0.6, SVG Export Plug-In . SVG Version: 6.00 Build 0)  -->
<svg version="1.1" id="Layer_1" xmlns="http://www.w3.org/2000/svg" xmlns:xlink="http://www.w3.org/1999/xlink" x="0px" y="0px"
	 viewBox="0 0 16 16" style="enable-background:new 0 0 16 16;" xml:space="preserve">
<style type="text/css">
	.st0{fill:#FF6400;}
</style>
<rect class="st0" width="16" height="16"/>
<g>
	<path d="M8.4,2C8.5,2.3,8.6,2.4,9,2.4c0.9,0,1.9,0,2.8,0c0.1,0,0.2,0.1,0.4,0.1c0-0.2,0-0.3,0.1-0.5c0.1,0,0.1,0,0.1,0
		c0,0.1,0,0.2,0,0.3c0,0.1,0,0.2,0.2,0.2c0,0,0.1,0,0.1,0.1c0,0.3,0.2,0.2,0.4,0.2c0.3,0,0.6-0.1,1-0.1c0.1,0,0.2,0.1,0.2,0.1
		c-0.1,0.1-0.2,0.1-0.2,0.1c-0.4,0-0.7,0-1.1,0c-0.2,0-0.4-0.1-0.5,0.1c-0.4,0.3-0.9,0.1-1.3,0.2c-0.1,0-0.2,0.1-0.3,0.2
		c-0.1,0.1-0.2,0.1-0.2,0.2c-0.1,0.1-0.1,0.2-0.1,0.3s0.1,0.3,0.1,0.4c0.1,0.1,0.1,0.2-0.1,0.3c-0.1,0-0.1,0.1-0.2,0.2
		C10,5.1,9.8,5.3,9.5,5.5C9.2,5.8,9,5.7,8.7,5.5C8.5,5.4,8.2,5.3,8,5.2C7.9,5.1,7.8,5.1,7.7,5.1C7.6,5.2,7.6,5.4,7.8,5.5
		C7.9,5.5,8,5.8,8,5.9c0,0.4-0.1,0.7-0.1,1.1c0,0.2-0.1,0.3-0.2,0.4C7.6,7.4,7.5,7.4,7.4,7.4C7.3,7.4,7.2,7.5,7.2,7.6
		c0,0.2,0.1,0.4,0.2,0.5C7.9,8.6,8.2,9.3,8.5,10c0.1,0.2,0.2,0.3,0.3,0.4c0.1,0.2,0.1,0.4,0.1,0.6c0,0.4-0.1,0.9-0.1,1.3v0.1
		c0.2,0.5-0.1,0.9-0.1,1.4c0,0.4,0.4,0.9,0.8,1.1c0.1,0.1,0.3,0.1,0.3,0.2c0.1,0.1,0.1,0.2,0.1,0.3c0,0.1-0.1,0.1-0.2,0.1
		c-0.4,0-0.9-0.1-1.3-0.1c-0.2,0-0.4-0.1-0.5,0c-0.3,0-0.4-0.1-0.3-0.4c0.1-0.2,0.2-0.4,0.2-0.5c0-0.3,0-0.7-0.1-1
		c-0.1-0.5-0.3-1-0.2-1.5c0-0.2,0.1-0.4,0.2-0.5C7.6,11,7.5,11,7.3,10.9c-0.1,0-0.3-0.1-0.4-0.2c-0.2-0.3-0.4-0.6-0.6-0.8
		C6.2,9.8,6.2,9.7,6.2,9.7c-0.3,0-0.4-0.2-0.5-0.4H5.6C5.4,9.7,5.2,10.1,5,10.5c-0.1,0.1-0.1,0.3-0.1,0.4c-0.1,0.1-0.1,0.3-0.2,0.4
		c-0.2,0.3-0.4,0.5-0.5,0.8c0,0.1,0,0.1,0,0.2c0,0.2,0,0.3-0.1,0.5c-0.1,0.3-0.3,0.6-0.4,1c0,0.1-0.1,0.1-0.1,0.1
		c-0.4,0.4-0.6,1-0.4,1.5c0.1,0.3,0.1,0.4-0.3,0.4c-0.2,0-0.4,0-0.6,0c-0.2,0-0.3-0.1-0.3-0.3c0.1-0.3,0.1-0.5,0.2-0.7
		c0-0.1,0.1-0.3,0.1-0.4c0.1-0.2,0.1-0.4,0.1-0.6c-0.1-0.2,0.1-0.4,0.1-0.6c0.1-0.2,0.1-0.4,0.2-0.6c0.1-0.3,0.3-0.5,0.4-0.8
		c0.1-0.1,0.1-0.1,0.1-0.2c0.2-0.3,0.2-0.5,0.2-0.8c0-0.3,0.1-0.7,0.1-1.1c0-0.1,0-0.3-0.1-0.4c0-0.2-0.1-0.4-0.1-0.7
		c0-0.1,0.1-0.2,0.1-0.2c0-0.4,0-0.5-0.1-0.6c0-0.3-0.1-0.5-0.1-0.8c0-0.2-0.1-0.5,0.3-0.5C3.6,6.2,3.6,6.2,3.6,6.2
		C3.2,6.2,3.2,6.2,3.2,5.8c0.1-0.3,0.1-0.6,0.1-0.8c0-0.3,0.1-0.3,0.3-0.3C4,4.6,4,4.5,4,4.2C3.9,3.5,4,2.9,4.6,2.4
		c0.3-0.2,0.6-0.4,1-0.2c0.1,0,0.1,0,0.1,0c0-0.1,0.1-0.1,0-0.2C5.5,1.7,5.6,1.4,5.7,1.1c0.3-0.6,1-0.8,1.6-0.5
		c0.1,0,0.1,0.1,0.1,0.1C8,0.8,7.9,1.3,7.9,1.7c0,0.2-0.1,0.3-0.3,0.3C7.4,2,7.5,2.2,7.5,2.3c0,0.2,0.2,0.1,0.3,0.1s0.3-0.1,0.4-0.1
		C8.3,2.3,8.3,2.2,8.4,2z M9,4C9,4,9,4,9.1,4c0.1-0.1,0.2-0.3,0.3-0.4V3.5C9.2,3.5,9,3.6,8.9,3.6C8.9,3.7,8.9,3.9,9,4z M9.1,3.5
		L9.1,3.5c0.2,0,0.2-0.1,0.3-0.1c0,0-0.1-0.1-0.1-0.2C9.1,3.2,9.1,3.3,9.1,3.5z"/>
</g>
</svg>
